<?xml version="1.0" encoding="UTF-8"?>
<svg version="1.1" xmlns="http://www.w3.org/2000/svg" width="941" height="565">
<path d="M0 0 C0.91007813 0.19464844 1.82015625 0.38929687 2.7578125 0.58984375 C3.45648438 0.74582031 4.15515625 0.90179687 4.875 1.0625 C4.875 1.7225 4.875 2.3825 4.875 3.0625 C5.47828125 3.06507812 6.0815625 3.06765625 6.703125 3.0703125 C9.21452361 3.19183179 11.44380353 3.40971747 13.875 4.0625 C16.68055823 7.21019948 17.875 8.82643124 17.875 13.0625 C18.865 13.3925 19.855 13.7225 20.875 14.0625 C20.875 15.7125 20.875 17.3625 20.875 19.0625 C21.535 19.0625 22.195 19.0625 22.875 19.0625 C23.205 20.7125 23.535 22.3625 23.875 24.0625 C24.535 24.0625 25.195 24.0625 25.875 24.0625 C25.854375 25.135 25.83375 26.2075 25.8125 27.3125 C25.72115017 30.82453915 25.72115017 30.82453915 26.4375 33.1875 C27.16574568 36.30855293 26.17802009 39.0322317 25.2890625 42.0546875 C24.73057992 44.0347621 24.29719423 46.04895829 23.875 48.0625 C24.535 49.0525 25.195 50.0425 25.875 51.0625 C25.215 51.0625 24.555 51.0625 23.875 51.0625 C23.545 53.7025 23.215 56.3425 22.875 59.0625 C21.885 59.0625 20.895 59.0625 19.875 59.0625 C19.875 60.3825 19.875 61.7025 19.875 63.0625 C19.215 63.0625 18.555 63.0625 17.875 63.0625 C17.875 64.0525 17.875 65.0425 17.875 66.0625 C16.885 66.0625 15.895 66.0625 14.875 66.0625 C14.936875 67.6403125 14.936875 67.6403125 15 69.25 C14.8816441 72.85985482 14.64986902 74.95647921 12.875 78.0625 C10.72298899 79.47243825 8.61913877 80.15175392 6.1875 81 C5.424375 81.350625 4.66125 81.70125 3.875 82.0625 C3.545 83.0525 3.215 84.0425 2.875 85.0625 C1.885 85.5575 1.885 85.5575 0.875 86.0625 C0.7925 86.64 0.71 87.2175 0.625 87.8125 C-0.34577597 90.72482791 -2.14346112 91.92908541 -4.51171875 93.77734375 C-6.90756768 95.68590137 -8.98866151 97.8713836 -11.125 100.0625 C-12.48625 101.3309375 -12.48625 101.3309375 -13.875 102.625 C-16.11165106 105.04803865 -16.5245319 105.97531075 -17.125 109.0625 C-18.40375 109.31 -19.6825 109.5575 -21 109.8125 C-24.28933722 110.51787303 -24.28933722 110.51787303 -26.375 113 C-26.6225 113.680625 -26.87 114.36125 -27.125 115.0625 C-29.25 116.8125 -29.25 116.8125 -31.125 118.0625 C-31.785 117.7325 -32.445 117.4025 -33.125 117.0625 C-33.125 118.0525 -33.125 119.0425 -33.125 120.0625 C-34.515625 121.703125 -34.515625 121.703125 -36.375 123.3125 C-36.97828125 123.85390625 -37.5815625 124.3953125 -38.203125 124.953125 C-40.125 126.0625 -40.125 126.0625 -42.359375 125.734375 C-42.94203125 125.51265625 -43.5246875 125.2909375 -44.125 125.0625 C-44.455 125.7225 -44.785 126.3825 -45.125 127.0625 C-45.455 127.0625 -45.785 127.0625 -46.125 127.0625 C-47.28249244 134.13606492 -47.36758869 140.47279934 -45 147.3125 C-44.02740344 150.36923206 -44.23110461 152.02325566 -45.125 155.0625 C-44.465 155.0625 -43.805 155.0625 -43.125 155.0625 C-43.07601562 155.79855469 -43.02703125 156.53460938 -42.9765625 157.29296875 C-42.86441406 158.75669922 -42.86441406 158.75669922 -42.75 160.25 C-42.68039062 161.21292969 -42.61078125 162.17585937 -42.5390625 163.16796875 C-42.11925444 166.10266473 -41.24525057 168.33215545 -40.125 171.0625 C-39.71889837 173.0107261 -39.36645269 174.97074729 -39.0625 176.9375 C-38.89621094 177.98292969 -38.72992188 179.02835938 -38.55859375 180.10546875 C-38.20964468 182.48523854 -37.90683124 184.86185103 -37.625 187.25 C-37.46 188.178125 -37.295 189.10625 -37.125 190.0625 C-36.465 190.3925 -35.805 190.7225 -35.125 191.0625 C-35.455 193.0425 -35.785 195.0225 -36.125 197.0625 C-35.465 197.0625 -34.805 197.0625 -34.125 197.0625 C-34.1559375 198.7021875 -34.1559375 198.7021875 -34.1875 200.375 C-34.31044452 204.00634191 -34.31044452 204.00634191 -33.125 207.0625 C-33.5625 209.25 -33.5625 209.25 -34.125 211.0625 C-33.465 211.0625 -32.805 211.0625 -32.125 211.0625 C-31.61736135 213.74875454 -31.11872803 216.43618383 -30.625 219.125 C-30.48191406 219.87716797 -30.33882812 220.62933594 -30.19140625 221.40429688 C-29.35034686 226.0301235 -29.07124618 230.34410881 -29.125 235.0625 C-28.815625 235.825625 -28.50625 236.58875 -28.1875 237.375 C-26.83557406 240.79457739 -26.64649729 244.01246451 -26.37109375 247.66015625 C-26.14283475 249.88839888 -25.66987976 251.89649036 -25.125 254.0625 C-25.125 256.0625 -25.125 258.0625 -25.125 260.0625 C-24.68558477 262.32816343 -24.68558477 262.32816343 -24.125 264.0625 C-24.785 264.0625 -25.445 264.0625 -26.125 264.0625 C-25.63 264.413125 -25.135 264.76375 -24.625 265.125 C-22.39245228 268.00870747 -23.00196443 270.49446842 -23.125 274.0625 C-22.83979595 275.73807379 -22.52544304 277.41067245 -22.125 279.0625 C-23.115 279.0625 -24.105 279.0625 -25.125 279.0625 C-25.125 280.0525 -25.125 281.0425 -25.125 282.0625 C-24.135 282.0625 -23.145 282.0625 -22.125 282.0625 C-21.28045644 285.44067425 -21.01655081 287.73715243 -22.125 291.0625 C-21.465 291.0625 -20.805 291.0625 -20.125 291.0625 C-20.33125 292.114375 -20.5375 293.16625 -20.75 294.25 C-21.41745942 297.88238431 -21.41745942 297.88238431 -20.15625 300.3125 C-18.82635149 303.85889604 -18.90727873 307.14831819 -19 310.875 C-19.00902344 311.56787109 -19.01804687 312.26074219 -19.02734375 312.97460938 C-19.05073843 314.67072395 -19.08660359 316.36665871 -19.125 318.0625 C-18.465 318.0625 -17.805 318.0625 -17.125 318.0625 C-17.14820313 319.34125 -17.17140625 320.62 -17.1953125 321.9375 C-17.21408533 323.64582745 -17.23228389 325.35416127 -17.25 327.0625 C-17.27513672 328.32126953 -17.27513672 328.32126953 -17.30078125 329.60546875 C-17.34349117 335.11504877 -16.68002007 339.77298292 -15.125 345.0625 C-15.785 345.0625 -16.445 345.0625 -17.125 345.0625 C-17.125 346.3825 -17.125 347.7025 -17.125 349.0625 C-16.465 349.0625 -15.805 349.0625 -15.125 349.0625 C-15.1559375 350.3309375 -15.1559375 350.3309375 -15.1875 351.625 C-15.09742374 356.57919416 -14.366197 361.27502584 -13.125 366.0625 C-13.125 366.7225 -13.125 367.3825 -13.125 368.0625 C-13.785 368.0625 -14.445 368.0625 -15.125 368.0625 C-14.939375 369.17625 -14.75375 370.29 -14.5625 371.4375 C-14.125 375.0625 -14.125 375.0625 -15.125 377.0625 C-14.465 377.0625 -13.805 377.0625 -13.125 377.0625 C-13.125 377.7225 -13.125 378.3825 -13.125 379.0625 C-13.785 379.0625 -14.445 379.0625 -15.125 379.0625 C-14.88523437 379.66578125 -14.64546875 380.2690625 -14.3984375 380.890625 C-14.10195313 381.68984375 -13.80546875 382.4890625 -13.5 383.3125 C-13.19835937 384.10140625 -12.89671875 384.8903125 -12.5859375 385.703125 C-12.02747864 388.56167715 -12.58809255 389.65209839 -14.125 392.0625 C-13.465 392.0625 -12.805 392.0625 -12.125 392.0625 C-12.125 393.0525 -12.125 394.0425 -12.125 395.0625 C-12.785 395.3925 -13.445 395.7225 -14.125 396.0625 C-13.465 396.3925 -12.805 396.7225 -12.125 397.0625 C-13 404.6875 -13 404.6875 -14.125 408.0625 C-13.465 408.0625 -12.805 408.0625 -12.125 408.0625 C-11.32546862 411.34946233 -11.02841064 412.77273192 -12.125 416.0625 C-12.785 416.0625 -13.445 416.0625 -14.125 416.0625 C-13.795 418.0425 -13.465 420.0225 -13.125 422.0625 C-14.115 422.0625 -15.105 422.0625 -16.125 422.0625 C-16.125 423.0525 -16.125 424.0425 -16.125 425.0625 C-15.135 425.0625 -14.145 425.0625 -13.125 425.0625 C-13.125 426.3825 -13.125 427.7025 -13.125 429.0625 C-13.785 429.0625 -14.445 429.0625 -15.125 429.0625 C-15.125 431.0425 -15.125 433.0225 -15.125 435.0625 C-13.97 435.206875 -12.815 435.35125 -11.625 435.5 C-4.35137152 437.05697479 1.90521374 441.36526 8.20849609 445.15454102 C10.03774563 446.21463137 10.03774563 446.21463137 12.875 447.0625 C12.875 447.7225 12.875 448.3825 12.875 449.0625 C13.92300781 449.25585938 14.97101563 449.44921875 16.05078125 449.6484375 C17.42975593 449.91109934 18.80865849 450.17414 20.1875 450.4375 C20.87779297 450.56382812 21.56808594 450.69015625 22.27929688 450.8203125 C25.71203314 451.48364318 27.92746458 452.09747639 30.875 454.0625 C33.00642095 454.77389995 35.15474245 455.43550121 37.3125 456.0625 C43.53841271 457.8757351 43.53841271 457.8757351 45.796875 459.12890625 C49.52881477 460.80547318 53.72653191 460.82507796 57.76757812 461.18554688 C61.9243244 461.62206422 64.97157269 462.53841952 68.79223633 464.32495117 C73.5761229 466.01902236 78.79289236 466.22777817 83.8125 466.75 C84.97330078 466.87955078 86.13410156 467.00910156 87.33007812 467.14257812 C90.17746606 467.45895456 93.02555844 467.76529162 95.875 468.0625 C95.875 468.7225 95.875 469.3825 95.875 470.0625 C97.133125 469.876875 98.39125 469.69125 99.6875 469.5 C103.10898069 469.11848219 106.17256444 469.11450779 109.5859375 469.52734375 C116.83082385 470.24605108 124.05592454 470.2126118 131.32885742 470.19287109 C133.7004219 470.18747057 136.07180033 470.19286789 138.44335938 470.19921875 C139.96875041 470.19855854 141.49414134 470.19727857 143.01953125 470.1953125 C144.0696917 470.19834885 144.0696917 470.19834885 145.1410675 470.20144653 C149.15834594 470.18239764 152.93152804 469.81599718 156.875 469.0625 C158.2489668 468.92661317 159.62398805 468.80081863 161 468.6875 C165.69366852 468.19301653 170.1105791 467.02793718 174.6640625 465.81640625 C179.15408073 464.76218056 183.67931788 464.21452096 188.2578125 463.6875 C191.21072738 463.29606429 191.21072738 463.29606429 192.875 460.0625 C194.8203125 459.55078125 194.8203125 459.55078125 197 459.375 C198.27875 459.271875 199.5575 459.16875 200.875 459.0625 C200.875 458.4025 200.875 457.7425 200.875 457.0625 C201.535 457.0625 202.195 457.0625 202.875 457.0625 C202.875 456.4025 202.875 455.7425 202.875 455.0625 C205.185 454.7325 207.495 454.4025 209.875 454.0625 C210.184375 453.11375 210.49375 452.165 210.8125 451.1875 C211.875 448.0625 211.875 448.0625 212.875 446.0625 C214.94140625 445.6484375 214.94140625 445.6484375 217.4375 445.4375 C218.67693359 445.32535156 218.67693359 445.32535156 219.94140625 445.2109375 C220.57949219 445.16195313 221.21757813 445.11296875 221.875 445.0625 C221.545 444.0725 221.215 443.0825 220.875 442.0625 C223.13868196 439.02269851 225.43870125 436.47521503 228.1875 433.875 C230.21570926 432.10929495 230.21570926 432.10929495 229.875 429.0625 C230.865 429.0625 231.855 429.0625 232.875 429.0625 C232.565625 427.70125 232.565625 427.70125 232.25 426.3125 C231.8622755 422.95222103 232.07088033 421.82174185 233.875 419.0625 C234.535 419.0625 235.195 419.0625 235.875 419.0625 C235.7821875 417.8559375 235.7821875 417.8559375 235.6875 416.625 C235.89407844 412.7000097 236.87382873 409.67679958 238.21875 406.015625 C238.98116729 404.0899305 238.98116729 404.0899305 238.875 402.0625 C239.535 402.0625 240.195 402.0625 240.875 402.0625 C241.060625 400.804375 241.24625 399.54625 241.4375 398.25 C241.54191406 397.54230469 241.64632813 396.83460938 241.75390625 396.10546875 C242.01404799 393.8599658 242.01404799 393.8599658 240.875 391.0625 C241.535 391.0625 242.195 391.0625 242.875 391.0625 C242.71902344 390.37542969 242.56304688 389.68835938 242.40234375 388.98046875 C242.20769531 388.07941406 242.01304687 387.17835938 241.8125 386.25 C241.61527344 385.35667969 241.41804688 384.46335937 241.21484375 383.54296875 C240.875 381.0625 240.875 381.0625 241.875 378.0625 C241.215 378.0625 240.555 378.0625 239.875 378.0625 C240.225625 377.340625 240.57625 376.61875 240.9375 375.875 C241.98494191 372.73267428 241.8304164 371.18931731 240.875 368.0625 C240.545 367.7325 240.215 367.4025 239.875 367.0625 C239.80294489 365.37641034 239.79113932 363.68749341 239.8125 362 C239.82603516 360.62134766 239.82603516 360.62134766 239.83984375 359.21484375 C239.85724609 358.14943359 239.85724609 358.14943359 239.875 357.0625 C239.215 357.0625 238.555 357.0625 237.875 357.0625 C237.875 355.0625 237.875 355.0625 239.875 353.0625 C239.875 352.4025 239.875 351.7425 239.875 351.0625 C238.885 350.7325 237.895 350.4025 236.875 350.0625 C236.875 347.72916667 236.875 345.39583333 236.875 343.0625 C235.885 342.7325 234.895 342.4025 233.875 342.0625 C233.545 339.0925 233.215 336.1225 232.875 333.0625 C232.215 333.0625 231.555 333.0625 230.875 333.0625 C229.68212589 329.18565913 228.875 326.14628077 228.875 322.0625 C228.09125 321.98 227.3075 321.8975 226.5 321.8125 C223.875 321.0625 223.875 321.0625 222.85546875 319.359375 C222.15174107 317.71080179 221.45458959 316.05941552 220.76171875 314.40625 C218.48762183 309.01360324 216.84485357 305.42050917 211.875 302.0625 C210.75 300 210.75 300 209.875 298.0625 C208.89649805 297.04145449 207.89519573 296.0418879 206.875 295.0625 C203.875 291.39583333 203.875 291.39583333 203.875 289.0625 C201.895 288.7325 199.915 288.4025 197.875 288.0625 C197.875 287.4025 197.875 286.7425 197.875 286.0625 C196.885 285.7325 195.895 285.4025 194.875 285.0625 C194.875 284.4025 194.875 283.7425 194.875 283.0625 C192.895 283.3925 190.915 283.7225 188.875 284.0625 C188.875 283.4025 188.875 282.7425 188.875 282.0625 C185.91289275 278.56849734 182.10847841 276.66500313 177.875 275.0625 C174.53923653 274.72447395 174.53923653 274.72447395 171.875 275.0625 C171.875 274.4025 171.875 273.7425 171.875 273.0625 C171.111875 273.0625 170.34875 273.0625 169.5625 273.0625 C167.66666667 273.0625 165.77083333 273.0625 163.875 273.0625 C163.875 272.4025 163.875 271.7425 163.875 271.0625 C160.45332135 270.17486349 160.45332135 270.17486349 157 270.53125 C154.63057831 271.12360542 152.56308242 271.16085415 150.125 271.125 C148.92617188 271.11146484 148.92617188 271.11146484 147.703125 271.09765625 C146.79820312 271.08025391 146.79820312 271.08025391 145.875 271.0625 C145.875 271.7225 145.875 272.3825 145.875 273.0625 C143.895 273.0625 141.915 273.0625 139.875 273.0625 C139.875 273.7225 139.875 274.3825 139.875 275.0625 C138.7303125 274.7221875 138.7303125 274.7221875 137.5625 274.375 C136.675625 274.271875 135.78875 274.16875 134.875 274.0625 C133.22905861 275.45838754 133.22905861 275.45838754 131.875 277.0625 C130.885 277.0625 129.895 277.0625 128.875 277.0625 C128.875 277.7225 128.875 278.3825 128.875 279.0625 C127.555 279.3925 126.235 279.7225 124.875 280.0625 C124.875 280.7225 124.875 281.3825 124.875 282.0625 C123.4140625 283.5703125 123.4140625 283.5703125 121.5 285.1875 C120.87351562 285.72632813 120.24703125 286.26515625 119.6015625 286.8203125 C117.875 288.0625 117.875 288.0625 115.875 288.0625 C115.6275 288.701875 115.38 289.34125 115.125 290 C113.875 292.0625 113.875 292.0625 111.8125 292.625 C111.173125 292.769375 110.53375 292.91375 109.875 293.0625 C109.545 294.0525 109.215 295.0425 108.875 296.0625 C108.22370203 297.40340759 107.55986725 298.73842331 106.875 300.0625 C106.215 300.0625 105.555 300.0625 104.875 300.0625 C104.4728125 301.7021875 104.4728125 301.7021875 104.0625 303.375 C102.91047849 306.95232994 102.45239387 307.69129764 99.875 310.0625 C99.1634375 311.5165625 99.1634375 311.5165625 98.4375 313 C96.88865307 316.03573998 95.33725381 317.75910128 92.875 320.0625 C90.68524227 323.34713659 89.87693437 326.26946275 88.875 330.0625 C88.215 330.0625 87.555 330.0625 86.875 330.0625 C86.730625 330.660625 86.58625 331.25875 86.4375 331.875 C85.9877561 333.62400404 85.44607659 335.34927023 84.875 337.0625 C84.215 337.0625 83.555 337.0625 82.875 337.0625 C82.72804688 338.20525391 82.72804688 338.20525391 82.578125 339.37109375 C81.71021701 345.36414808 80.50023928 350.26957116 77.828125 355.68359375 C75.99183677 360.26678855 75.50158163 365.19000335 74.875 370.0625 C74.215 370.0625 73.555 370.0625 72.875 370.0625 C72.875 371.0525 72.875 372.0425 72.875 373.0625 C73.535 373.3925 74.195 373.7225 74.875 374.0625 C74.565625 374.825625 74.25625 375.58875 73.9375 376.375 C72.53697419 381.23564841 72.21520266 386.03108173 71.875 391.0625 C71.215 391.0625 70.555 391.0625 69.875 391.0625 C69.89820313 391.99191406 69.92140625 392.92132813 69.9453125 393.87890625 C70.1109131 405.22254725 70.1109131 405.22254725 68.8125 409.1875 C67.64727499 411.88646572 67.64727499 411.88646572 68.3671875 413.96875 C68.97060077 416.45666931 68.66591077 417.96308174 68.0625 420.4375 C67.89105469 421.16710937 67.71960938 421.89671875 67.54296875 422.6484375 C65.95565801 428.38503421 63.80302039 433.80076513 61.4375 439.25 C61.13779297 439.96091797 60.83808594 440.67183594 60.52929688 441.40429688 C57.77301399 447.7598906 57.77301399 447.7598906 54.875 450.0625 C51.1875 450.25 51.1875 450.25 47.875 450.0625 C47.57207031 449.2890625 47.26914062 448.515625 46.95703125 447.71875 C44.13594129 440.63001067 44.13594129 440.63001067 40.125 434.1875 C36.95183372 429.53154573 37.22363222 424.41829891 37.11328125 418.94140625 C37.03464844 417.99136719 36.95601563 417.04132813 36.875 416.0625 C36.215 415.7325 35.555 415.4025 34.875 415.0625 C35.535 415.0625 36.195 415.0625 36.875 415.0625 C36.524375 414.051875 36.17375 413.04125 35.8125 412 C34.6815921 408.11250409 35.21010565 405.05186611 35.875 401.0625 C35.689375 400.19625 35.50375 399.33 35.3125 398.4375 C34.75282446 395.39926137 35.7444618 393.8888455 36.875 391.0625 C36.71 390.32 36.545 389.5775 36.375 388.8125 C35.62474193 384.6860806 36.81897392 381.06841711 37.875 377.0625 C38.535 377.0625 39.195 377.0625 39.875 377.0625 C39.5346875 375.6703125 39.5346875 375.6703125 39.1875 374.25 C38.875 371.0625 38.875 371.0625 40.3125 369.1875 C40.828125 368.81625 41.34375 368.445 41.875 368.0625 C40.885 368.3925 39.895 368.7225 38.875 369.0625 C37.75513463 365.70290388 38.13455901 364.43562008 38.875 361.0625 C38.875 359.7425 38.875 358.4225 38.875 357.0625 C39.535 357.0625 40.195 357.0625 40.875 357.0625 C40.66875 356.299375 40.4625 355.53625 40.25 354.75 C39.875 352.0625 39.875 352.0625 41.875 349.0625 C41.875 348.4025 41.875 347.7425 41.875 347.0625 C42.535 347.0625 43.195 347.0625 43.875 347.0625 C43.545 345.0825 43.215 343.1025 42.875 341.0625 C43.535 340.7325 44.195 340.4025 44.875 340.0625 C45.38306362 337.58599442 45.38306362 337.58599442 45.6875 334.625 C46.49041539 329.20371527 48.07993219 325.23209982 50.69921875 320.46484375 C52.50980945 316.76546407 53.15795051 313.10405165 53.875 309.0625 C54.865 309.3925 55.855 309.7225 56.875 310.0625 C56.875 309.0725 56.875 308.0825 56.875 307.0625 C57.535 307.0625 58.195 307.0625 58.875 307.0625 C59.184375 305.70125 59.184375 305.70125 59.5 304.3125 C60.85101779 299.46473029 63.28442962 295.16147001 65.6328125 290.734375 C67.08578933 288.10018978 67.08578933 288.10018978 66.875 285.0625 C68.195 285.0625 69.515 285.0625 70.875 285.0625 C70.875 284.4025 70.875 283.7425 70.875 283.0625 C71.535 282.7325 72.195 282.4025 72.875 282.0625 C72.875 281.0725 72.875 280.0825 72.875 279.0625 C73.85148017 278.03952078 74.85631338 277.04345748 75.875 276.0625 C76.390625 275.175625 76.90625 274.28875 77.4375 273.375 C78.1490625 272.2303125 78.1490625 272.2303125 78.875 271.0625 C79.535 271.0625 80.195 271.0625 80.875 271.0625 C81.535 269.7425 82.195 268.4225 82.875 267.0625 C83.535 267.0625 84.195 267.0625 84.875 267.0625 C85.205 264.7525 85.535 262.4425 85.875 260.0625 C87.525 260.0625 89.175 260.0625 90.875 260.0625 C90.94332031 259.485 91.01164062 258.9075 91.08203125 258.3125 C92.73831642 253.61289281 97.99541049 250.93823834 101.875 248.0625 C102.46410156 247.61003906 103.05320312 247.15757812 103.66015625 246.69140625 C107.03645915 244.23345774 109.82108851 243.7243631 113.875 243.0625 C117.49464594 241.22092575 120.38769458 239.46858785 123.5 236.875 C126.07604905 234.90906783 127.75693644 234.65240392 130.875 234.0625 C131.535 233.0725 132.195 232.0825 132.875 231.0625 C133.205 231.3925 133.535 231.7225 133.875 232.0625 C139.18862792 232.97864275 143.52720853 233.15388601 148.875 232.0625 C149.205 231.7325 149.535 231.4025 149.875 231.0625 C157.16911765 230.82720588 157.16911765 230.82720588 160.875 232.0625 C162.36 232.0315625 162.36 232.0315625 163.875 232 C166.875 232.0625 166.875 232.0625 169.875 234.0625 C172.40056511 234.65095385 174.88879204 235.16927076 177.4375 235.625 C184.64394502 236.94697251 184.64394502 236.94697251 186.875 238.0625 C186.875 239.0525 186.875 240.0425 186.875 241.0625 C187.9475 241.02125 189.02 240.98 190.125 240.9375 C193.64441752 241.05481392 194.99679232 241.27602627 197.875 243.0625 C198.49375 243.330625 199.1125 243.59875 199.75 243.875 C201.875 245.0625 201.875 245.0625 204.6875 247.5 C206.99749261 249.50082693 208.49527658 250.32366909 211.4375 251.5625 C215.2003026 253.20445023 217.27379504 254.90952429 219.875 258.0625 C219.875 259.0525 219.875 260.0425 219.875 261.0625 C220.638125 261.330625 221.40125 261.59875 222.1875 261.875 C224.79813504 263.02853641 225.94885089 264.04879865 227.875 266.0625 C228.865 266.3925 229.855 266.7225 230.875 267.0625 C230.875 268.0525 230.875 269.0425 230.875 270.0625 C231.865 270.3925 232.855 270.7225 233.875 271.0625 C234.535 271.743125 235.195 272.42375 235.875 273.125 C237.77002283 275.41039761 237.77002283 275.41039761 240.875 275.0625 C241.13023437 275.95001953 241.13023437 275.95001953 241.390625 276.85546875 C242.89116973 281.74820237 244.44724913 285.16195591 247.875 289.0625 C247.875 289.7225 247.875 290.3825 247.875 291.0625 C248.865 291.3925 249.855 291.7225 250.875 292.0625 C250.875 293.3825 250.875 294.7025 250.875 296.0625 C251.48214844 296.27003906 252.08929687 296.47757812 252.71484375 296.69140625 C255.7386322 298.61066438 256.21622154 300.67473687 257.4375 304 C258.83640734 307.77475653 259.87036921 310.37327245 262.875 313.0625 C264.10752012 315.74504378 264.99099867 318.43224577 265.875 321.25 C266.68114081 324.15488 266.68114081 324.15488 268.875 326.0625 C269.14491906 328.75089385 268.96237357 331.35391936 268.875 334.0625 C269.865 334.3925 270.855 334.7225 271.875 335.0625 C271.545 335.7225 271.215 336.3825 270.875 337.0625 C271.8340625 338.5784375 271.8340625 338.5784375 272.8125 340.125 C275.09341743 343.84608714 275.17034312 346.66514829 274.8203125 350.94921875 C274.88491834 353.44577303 275.75551356 354.86516091 276.875 357.0625 C276.545 357.7225 276.215 358.3825 275.875 359.0625 C276.535 359.0625 277.195 359.0625 277.875 359.0625 C277.875 362.0325 277.875 365.0025 277.875 368.0625 C277.215 368.0625 276.555 368.0625 275.875 368.0625 C275.875 369.7125 275.875 371.3625 275.875 373.0625 C276.865 373.3925 277.855 373.7225 278.875 374.0625 C279.5625 376.125 279.5625 376.125 279.875 378.0625 C278.885 378.7225 277.895 379.3825 276.875 380.0625 C277.535 381.0525 278.195 382.0425 278.875 383.0625 C278.9608547 385.76692295 278.9680658 388.3687621 278.875 391.0625 C278.875 393.3517758 278.89393628 395.64163449 278.96875 397.9296875 C278.86959747 401.24303441 278.25606112 403.99773243 277.375 407.1875 C276.39572758 410.75096354 275.875 413.32641256 275.875 417.0625 C274.7108179 420.8237037 274.24831354 421.81362431 270.875 424.0625 C270.875 425.3825 270.875 426.7025 270.875 428.0625 C270.215 428.0625 269.555 428.0625 268.875 428.0625 C268.875 428.7225 268.875 429.3825 268.875 430.0625 C268.215 430.0625 267.555 430.0625 266.875 430.0625 C267.184375 431.42375 267.184375 431.42375 267.5 432.8125 C267.90457637 436.31882851 267.79934841 437.22179521 265.875 440.0625 C265.17375 440.92875 264.4725 441.795 263.75 442.6875 C261.6684519 444.81980599 261.6684519 444.81980599 261.875 447.0625 C260.885 447.0625 259.895 447.0625 258.875 447.0625 C258.875 448.3825 258.875 449.7025 258.875 451.0625 C256.84285562 452.81198887 254.88517268 454.30324069 252.6875 455.8125 C248.01452606 459.18919309 244.77828002 462.0214521 242.0390625 467.17578125 C239.06742528 471.99222682 234.53843928 475.37930172 229.375 477.5 C228.55 477.685625 227.725 477.87125 226.875 478.0625 C226.875 478.7225 226.875 479.3825 226.875 480.0625 C225.885 480.3925 224.895 480.7225 223.875 481.0625 C223.4315625 481.55878906 222.988125 482.05507813 222.53125 482.56640625 C219.70577753 485.11866086 216.13739694 484.91084875 212.46875 485.33984375 C209.33115614 486.21402276 208.51588864 487.31844636 206.875 490.0625 C205.8540625 489.7221875 205.8540625 489.7221875 204.8125 489.375 C200.8088001 488.94907448 198.49663803 490.37656505 194.875 492.0625 C192.56029088 492.79120472 190.2244053 493.45489518 187.875 494.0625 C187.24843506 494.22476074 186.62187012 494.38702148 185.97631836 494.55419922 C179.62375182 496.08719056 173.32030061 496.65812722 166.8125 497.125 C164.73816351 497.28099423 162.66394118 497.43851498 160.58984375 497.59765625 C159.68355225 497.663479 158.77726074 497.72930176 157.84350586 497.79711914 C155.56212512 498.00107184 153.2865861 498.27120038 151.015625 498.56958008 C146.98720521 499.0848787 142.96780136 499.29516444 138.91015625 499.4140625 C137.83198891 499.44879166 137.83198891 499.44879166 136.73204041 499.48422241 C135.23051704 499.53141872 133.7289323 499.57669947 132.22729492 499.62011719 C129.91885019 499.68804882 127.61085328 499.76559975 125.30273438 499.84375 C123.83855923 499.88859791 122.37436691 499.93288934 120.91015625 499.9765625 C120.21857925 500.00046051 119.52700226 500.02435852 118.81446838 500.04898071 C117.16855379 500.09271858 115.5213677 500.08302462 113.875 500.0625 C113.545 499.7325 113.215 499.4025 112.875 499.0625 C109.89222267 498.85091382 106.92408798 498.68608295 103.9375 498.5625 C102.28237601 498.49369577 100.62740929 498.42096293 98.97265625 498.34375 C98.23539307 498.31345703 97.49812988 498.28316406 96.73852539 498.25195312 C94.875 498.0625 94.875 498.0625 92.875 497.0625 C91.49823731 496.93510824 90.11631073 496.86065322 88.734375 496.81640625 C87.91066406 496.78353516 87.08695312 496.75066406 86.23828125 496.71679688 C84.51183328 496.65615184 82.7852662 496.59879826 81.05859375 496.54492188 C76.28027427 496.34799269 72.3932434 495.76512251 67.875 494.0625 C65.20798505 493.58975153 62.57316424 493.34162044 59.875 493.0625 C59.875 492.4025 59.875 491.7425 59.875 491.0625 C58.84375 491.26875 57.8125 491.475 56.75 491.6875 C52.70669533 492.07878755 50.60185797 491.5024224 46.875 490.0625 C45.885 490.0625 44.895 490.0625 43.875 490.0625 C43.545 489.4025 43.215 488.7425 42.875 488.0625 C40.70575064 487.5420005 38.51177933 487.12380869 36.3125 486.75 C27.92399087 485.2347954 19.95288005 482.74805013 11.875 480.0625 C11.875 479.4025 11.875 478.7425 11.875 478.0625 C11.16988281 478.1140625 10.46476563 478.165625 9.73828125 478.21875 C6.33482939 478.03302275 4.12328799 477.03757855 1.0625 475.5625 C0.08667969 475.0984375 -0.88914062 474.634375 -1.89453125 474.15625 C-2.63058594 473.7953125 -3.36664063 473.434375 -4.125 473.0625 C-4.125 472.4025 -4.125 471.7425 -4.125 471.0625 C-7.755 470.7325 -11.385 470.4025 -15.125 470.0625 C-15.125 469.4025 -15.125 468.7425 -15.125 468.0625 C-16.115 468.0625 -17.105 468.0625 -18.125 468.0625 C-18.125 467.4025 -18.125 466.7425 -18.125 466.0625 C-19.115 465.7325 -20.105 465.4025 -21.125 465.0625 C-21.49625 465.92875 -21.49625 465.92875 -21.875 466.8125 C-23.29099656 469.36129381 -25.07223215 471.00973215 -27.125 473.0625 C-27.455 474.0525 -27.785 475.0425 -28.125 476.0625 C-29.6484375 477.30859375 -29.6484375 477.30859375 -31.5 478.5 C-33.76686582 480.02348067 -35.06269688 480.97164128 -36.625 483.25 C-38.89289449 485.99037251 -41.80562293 486.27600581 -45.125 487.0625 C-46.81557085 487.55201656 -48.50297247 488.05257525 -50.1875 488.5625 C-51.03828125 488.81773437 -51.8890625 489.07296875 -52.765625 489.3359375 C-54.66635606 489.92126197 -56.55432812 490.54793219 -58.4375 491.1875 C-61.01106995 492.0254065 -63.45904365 492.60733672 -66.125 493.0625 C-67.795625 493.4028125 -67.795625 493.4028125 -69.5 493.75 C-73.61427862 494.10467919 -76.18035612 493.22899343 -80.125 492.0625 C-82.60049385 491.58472706 -85.07986795 491.12667528 -87.5625 490.6875 C-93.3208375 489.58996343 -98.19547042 488.31598952 -103.125 485.0625 C-103.48193877 483.73529105 -103.81714365 482.40194517 -104.125 481.0625 C-106.42034258 479.92704438 -106.42034258 479.92704438 -109.125 479.0625 C-111.8125 477.875 -111.8125 477.875 -114.125 476.0625 C-115.3125 472.4375 -115.3125 472.4375 -116.125 469.0625 C-116.785 468.7325 -117.445 468.4025 -118.125 468.0625 C-118.62 466.5775 -118.62 466.5775 -119.125 465.0625 C-119.785 464.7325 -120.445 464.4025 -121.125 464.0625 C-120.795 462.4125 -120.465 460.7625 -120.125 459.0625 C-120.785 459.0625 -121.445 459.0625 -122.125 459.0625 C-122.785 457.4125 -123.445 455.7625 -124.125 454.0625 C-123.465 453.7325 -122.805 453.4025 -122.125 453.0625 C-122.785 451.0825 -123.445 449.1025 -124.125 447.0625 C-123.465 446.7325 -122.805 446.4025 -122.125 446.0625 C-121.795 445.0725 -121.465 444.0825 -121.125 443.0625 C-122.115 443.0625 -123.105 443.0625 -124.125 443.0625 C-124.6780951 435.45744241 -123.01607374 429.58599612 -118.125 423.625 C-116.125 422.0625 -116.125 422.0625 -114 421.0625 C-111.96104535 420.21829423 -111.96104535 420.21829423 -111.2421875 418.13671875 C-109.31568144 414.55988408 -105.79052547 413.4845306 -102.125 412.0625 C-100.1335944 411.68116701 -98.13220923 411.34924418 -96.125 411.0625 C-93.91932258 410.27997106 -91.73830435 409.45789659 -89.56640625 408.5859375 C-86.23070505 407.87076316 -83.48471739 408.52015568 -80.125 409.0625 C-78.10760848 409.13377193 -76.09010596 409.20441367 -74.07202148 409.25219727 C-65.53610647 409.49334687 -58.79865506 411.05563965 -51.125 415.0625 C-49.32058808 410.38297386 -49.32058808 410.38297386 -50 405.625 C-50.37125 405.109375 -50.7425 404.59375 -51.125 404.0625 C-50.465 403.7325 -49.805 403.4025 -49.125 403.0625 C-48.71770772 400.74093403 -48.38061323 398.4056213 -48.125 396.0625 C-48.785 395.7325 -49.445 395.4025 -50.125 395.0625 C-50.10759766 393.81533203 -50.10759766 393.81533203 -50.08984375 392.54296875 C-50.08082031 391.45628906 -50.07179688 390.36960937 -50.0625 389.25 C-50.04509766 387.63158203 -50.04509766 387.63158203 -50.02734375 385.98046875 C-49.98875234 382.99737831 -49.98875234 382.99737831 -51.125 380.0625 C-51.19529121 377.48984182 -51.21870832 374.94608569 -51.1875 372.375 C-51.18298828 371.67310547 -51.17847656 370.97121094 -51.17382812 370.24804688 C-51.16206927 368.51949462 -51.14413454 366.79098635 -51.125 365.0625 C-50.465 365.0625 -49.805 365.0625 -49.125 365.0625 C-49.125 364.4025 -49.125 363.7425 -49.125 363.0625 C-50.115 363.0625 -51.105 363.0625 -52.125 363.0625 C-52.125 360.0625 -52.125 360.0625 -50.125 358.0625 C-51.115 357.4025 -52.105 356.7425 -53.125 356.0625 C-53.125 355.4025 -53.125 354.7425 -53.125 354.0625 C-52.465 354.0625 -51.805 354.0625 -51.125 354.0625 C-51.475625 353.36125 -51.82625 352.66 -52.1875 351.9375 C-53.125 349.0625 -53.125 349.0625 -52.625 346.1875 C-52.00202853 342.29392834 -52.88850002 339.77199994 -54.125 336.0625 C-55.12361393 332.88509205 -55.02188837 331.25143642 -54.125 328.0625 C-54.125 326.7425 -54.125 325.4225 -54.125 324.0625 C-54.455 323.7325 -54.785 323.4025 -55.125 323.0625 C-55.16563832 321.39632885 -55.167721 319.72861905 -55.125 318.0625 C-54.135 317.7325 -53.145 317.4025 -52.125 317.0625 C-52.62 316.381875 -53.115 315.70125 -53.625 315 C-55.4815324 311.36429071 -55.1897949 309.14457859 -55.125 305.0625 C-55.75844877 300.33026507 -56.45423561 295.56514508 -57.69140625 290.94921875 C-58.2944571 288.32513261 -58.125 285.74060453 -58.125 283.0625 C-57.795 282.7325 -57.465 282.4025 -57.125 282.0625 C-57.46912379 279.02273988 -57.83296578 276.06839566 -58.6875 273.125 C-59.39651599 269.78249604 -59.18183166 266.47239949 -59.125 263.0625 C-59.785 262.7325 -60.445 262.4025 -61.125 262.0625 C-61.125 258.0625 -61.125 258.0625 -60.5 255.25 C-59.90716311 251.974312 -59.90716311 251.974312 -61.125 248.5625 C-62.18041922 244.86853272 -62.02380974 242.74761994 -61.125 239.0625 C-61.785 239.0625 -62.445 239.0625 -63.125 239.0625 C-63.125 238.0725 -63.125 237.0825 -63.125 236.0625 C-62.465 236.0625 -61.805 236.0625 -61.125 236.0625 C-61.125 235.4025 -61.125 234.7425 -61.125 234.0625 C-61.785 234.0625 -62.445 234.0625 -63.125 234.0625 C-63.18558594 233.44761719 -63.24617187 232.83273437 -63.30859375 232.19921875 C-63.39238281 231.39097656 -63.47617187 230.58273437 -63.5625 229.75 C-63.64371094 228.94949219 -63.72492188 228.14898437 -63.80859375 227.32421875 C-64.07765693 224.90162821 -64.07765693 224.90162821 -65.125 222.0625 C-65.32113437 220.60783674 -65.48536606 219.14866948 -65.625 217.6875 C-65.87362361 215.27118931 -66.14835045 212.94574775 -66.625 210.5625 C-67.0946952 208.214024 -67.33914786 205.94492288 -67.5625 203.5625 C-67.84327176 200.74074377 -68.19442606 198.89806987 -69.3125 196.25 C-69.580625 195.528125 -69.84875 194.80625 -70.125 194.0625 C-69.774375 193.423125 -69.42375 192.78375 -69.0625 192.125 C-68.753125 191.444375 -68.44375 190.76375 -68.125 190.0625 C-69.41644978 187.06257271 -69.41644978 187.06257271 -71.125 184.0625 C-72.57007976 178.57119692 -73.125 172.72004741 -73.125 167.0625 C-73.785 167.0625 -74.445 167.0625 -75.125 167.0625 C-75.10179687 166.33804688 -75.07859375 165.61359375 -75.0546875 164.8671875 C-74.95310228 159.42512188 -75.19416217 155.21140088 -77.125 150.0625 C-76.795 149.0725 -76.465 148.0825 -76.125 147.0625 C-79.095 148.0525 -79.095 148.0525 -82.125 149.0625 C-82.125 149.7225 -82.125 150.3825 -82.125 151.0625 C-83.0325 151.26875 -83.94 151.475 -84.875 151.6875 C-88.37745199 152.80805902 -88.37745199 152.80805902 -90.125 156.1875 C-90.785 157.13625 -91.445 158.085 -92.125 159.0625 C-95.375 159.4375 -95.375 159.4375 -98.125 159.0625 C-98.455 160.0525 -98.785 161.0425 -99.125 162.0625 C-99.785 162.3925 -100.445 162.7225 -101.125 163.0625 C-101.125 163.7225 -101.125 164.3825 -101.125 165.0625 C-101.888125 165.145 -102.65125 165.2275 -103.4375 165.3125 C-106.68024435 166.21745191 -107.28765816 167.35023348 -109.125 170.0625 C-109.785 170.0625 -110.445 170.0625 -111.125 170.0625 C-111.455 170.7225 -111.785 171.3825 -112.125 172.0625 C-112.888125 172.18625 -113.65125 172.31 -114.4375 172.4375 C-117.25897489 172.84410258 -117.25897489 172.84410258 -119.125 175.0625 C-121.50807475 177.44557475 -122.87904497 177.49445787 -126.125 178.0625 C-127.48122245 179.03123032 -128.81917053 180.02684215 -130.125 181.0625 C-130.785 181.0625 -131.445 181.0625 -132.125 181.0625 C-132.455 182.7125 -132.785 184.3625 -133.125 186.0625 C-134.445 186.0625 -135.765 186.0625 -137.125 186.0625 C-137.125 186.7225 -137.125 187.3825 -137.125 188.0625 C-138.115 188.0625 -139.105 188.0625 -140.125 188.0625 C-140.455 189.0525 -140.785 190.0425 -141.125 191.0625 C-144.07918637 193.7598006 -146.3103342 195.79094473 -150.125 197.0625 C-152.84352614 199.50917352 -154.92723156 201.73288594 -156.8125 204.875 C-157.245625 205.596875 -157.67875 206.31875 -158.125 207.0625 C-158.785 207.0625 -159.445 207.0625 -160.125 207.0625 C-160.125 207.7225 -160.125 208.3825 -160.125 209.0625 C-161.775 209.3925 -163.425 209.7225 -165.125 210.0625 C-165.455 211.0525 -165.785 212.0425 -166.125 213.0625 C-166.785 213.0625 -167.445 213.0625 -168.125 213.0625 C-168.125 213.7225 -168.125 214.3825 -168.125 215.0625 C-168.785 215.0625 -169.445 215.0625 -170.125 215.0625 C-171.115 218.0325 -171.115 218.0325 -172.125 221.0625 C-173.115 221.0625 -174.105 221.0625 -175.125 221.0625 C-175.49625 222.0215625 -175.49625 222.0215625 -175.875 223 C-176.49375 224.0209375 -176.49375 224.0209375 -177.125 225.0625 C-177.73730469 225.1553125 -178.34960938 225.248125 -178.98046875 225.34375 C-182.25545183 226.44137639 -183.01158963 228.68934492 -184.6875 231.625 C-186.44140625 234.69140625 -186.44140625 234.69140625 -188.125 237.0625 C-189.115 237.0625 -190.105 237.0625 -191.125 237.0625 C-191.186875 237.68125 -191.24875 238.3 -191.3125 238.9375 C-191.580625 239.63875 -191.84875 240.34 -192.125 241.0625 C-193.3315625 241.495625 -193.3315625 241.495625 -194.5625 241.9375 C-195.408125 242.30875 -196.25375 242.68 -197.125 243.0625 C-197.84545764 245.0437585 -198.50501259 247.04754093 -199.125 249.0625 C-201.0563399 251.85520403 -203.32026923 254.31737891 -205.8125 256.625 C-207.62956259 258.61511617 -208.2368111 260.50895693 -209.125 263.0625 C-209.38539063 263.66707031 -209.64578125 264.27164062 -209.9140625 264.89453125 C-212.68346269 271.86979621 -212.40975728 278.64826423 -212.125 286.0625 C-211.02091797 286.01609375 -211.02091797 286.01609375 -209.89453125 285.96875 C-205.8499663 286.10566052 -202.86037697 287.54302462 -199.125 289.0625 C-199.125 289.7225 -199.125 290.3825 -199.125 291.0625 C-198.135 290.7325 -197.145 290.4025 -196.125 290.0625 C-195.465 286.7625 -194.805 283.4625 -194.125 280.0625 C-193.465 280.0625 -192.805 280.0625 -192.125 280.0625 C-192.13660156 279.44761719 -192.14820313 278.83273437 -192.16015625 278.19921875 C-192.16917969 277.39097656 -192.17820313 276.58273437 -192.1875 275.75 C-192.19910156 274.94949219 -192.21070313 274.14898437 -192.22265625 273.32421875 C-192.125 271.0625 -192.125 271.0625 -191.125 268.0625 C-190.465 268.0625 -189.805 268.0625 -189.125 268.0625 C-189.125 267.4025 -189.125 266.7425 -189.125 266.0625 C-188.465 266.0625 -187.805 266.0625 -187.125 266.0625 C-186.856875 265.464375 -186.58875 264.86625 -186.3125 264.25 C-184.27425373 260.49533582 -184.27425373 260.49533582 -182.125 259.0625 C-176.59932024 258.2603852 -176.59932024 258.2603852 -174.125 259.0625 C-170.08673808 262.83891497 -168.58584575 265.27720151 -168.37890625 270.984375 C-168.37761719 271.67015625 -168.37632812 272.3559375 -168.375 273.0625 C-168.26375814 278.63958456 -168.26375814 278.63958456 -167.51171875 284.16015625 C-166.69011626 290.32632441 -169.25978011 297.21123939 -172.625 302.35546875 C-174.0553633 304.03256972 -175.5147243 305.55957602 -177.125 307.0625 C-177.63933594 307.61679687 -178.15367187 308.17109375 -178.68359375 308.7421875 C-180.125 310.0625 -180.125 310.0625 -182.125 310.0625 C-182.4653125 310.92875 -182.4653125 310.92875 -182.8125 311.8125 C-184.47348222 314.65989809 -186.44024561 316.18317193 -189.125 318.0625 C-189.785 318.0625 -190.445 318.0625 -191.125 318.0625 C-191.125 319.0525 -191.125 320.0425 -191.125 321.0625 C-196.1188151 321.7907647 -201.11588725 322.44788494 -206.125 323.0625 C-206.89070313 323.1759375 -207.65640625 323.289375 -208.4453125 323.40625 C-216.51184144 324.10465077 -225.62967781 318.44333781 -232.125 314.0625 C-232.79849161 312.39857955 -233.4659159 310.73217972 -234.125 309.0625 C-234.76050781 308.91683594 -235.39601562 308.77117187 -236.05078125 308.62109375 C-238.125 308.0625 -238.125 308.0625 -240.25 304.75 C-244.42551895 295.49481431 -245.34594862 284.0553125 -244.125 274.0625 C-242.83583439 270.74301084 -241.24168765 267.92002833 -239.125 265.0625 C-238.465 265.0625 -237.805 265.0625 -237.125 265.0625 C-237.33125 264.52625 -237.5375 263.99 -237.75 263.4375 C-238.2564747 260.22982692 -237.27900225 258.04932934 -236.125 255.0625 C-235.465 255.0625 -234.805 255.0625 -234.125 255.0625 C-233.83625 254.299375 -233.5475 253.53625 -233.25 252.75 C-232.125 250.0625 -232.125 250.0625 -230.125 247.0625 C-229.465 247.0625 -228.805 247.0625 -228.125 247.0625 C-227.19048488 244.76215508 -226.26844338 242.46220741 -225.4296875 240.125 C-222.1040487 230.8832248 -222.1040487 230.8832248 -218.5625 227.625 C-216.51436731 225.39876882 -216.04057407 222.92366895 -215.125 220.0625 C-214.1648183 218.37258021 -213.17144066 216.70040712 -212.125 215.0625 C-211.795 214.4025 -211.465 213.7425 -211.125 213.0625 C-210.465 213.0625 -209.805 213.0625 -209.125 213.0625 C-208.815625 212.0415625 -208.815625 212.0415625 -208.5 211 C-205.86314383 205.36671637 -201.80554855 200.74498126 -196.125 198.0625 C-195.465 198.0625 -194.805 198.0625 -194.125 198.0625 C-194.063125 197.2375 -194.00125 196.4125 -193.9375 195.5625 C-192.91358544 191.15179114 -190.98922188 187.57808698 -188.125 184.0625 C-187.465 184.0625 -186.805 184.0625 -186.125 184.0625 C-185.465 182.4125 -184.805 180.7625 -184.125 179.0625 C-182.805 179.0625 -181.485 179.0625 -180.125 179.0625 C-180.063125 178.505625 -180.00125 177.94875 -179.9375 177.375 C-178.75973177 174.02289041 -176.79064604 172.36464886 -174.125 170.0625 C-173.3 169.753125 -172.475 169.44375 -171.625 169.125 C-168.12400858 167.63707865 -166.35487047 165.01144922 -164.125 162.0625 C-163.3825 161.175625 -162.64 160.28875 -161.875 159.375 C-159.95980263 157.10076445 -159.95980263 157.10076445 -159.125 154.0625 C-157.475 154.0625 -155.825 154.0625 -154.125 154.0625 C-154.125 153.4025 -154.125 152.7425 -154.125 152.0625 C-151.125 150.0625 -151.125 150.0625 -148.125 150.0625 C-147.795 149.0725 -147.465 148.0825 -147.125 147.0625 C-146.465 147.0625 -145.805 147.0625 -145.125 147.0625 C-145.125 146.4025 -145.125 145.7425 -145.125 145.0625 C-144.55910156 144.79695312 -143.99320312 144.53140625 -143.41015625 144.2578125 C-142.30994141 143.72800781 -142.30994141 143.72800781 -141.1875 143.1875 C-140.09115234 142.66542969 -140.09115234 142.66542969 -138.97265625 142.1328125 C-136.96167541 141.1940023 -136.96167541 141.1940023 -136.125 139.0625 C-135.465 139.0625 -134.805 139.0625 -134.125 139.0625 C-133.795 138.0725 -133.465 137.0825 -133.125 136.0625 C-131.12890625 134.89453125 -131.12890625 134.89453125 -128.6875 133.875 C-127.88441406 133.53082031 -127.08132813 133.18664062 -126.25390625 132.83203125 C-124.125 132.0625 -124.125 132.0625 -122.125 132.0625 C-121.795 131.0725 -121.465 130.0825 -121.125 129.0625 C-120.125 126.0625 -120.125 126.0625 -118.09375 124.96484375 C-117.2790625 124.64644531 -116.464375 124.32804687 -115.625 124 C-112.16443188 122.83547997 -112.16443188 122.83547997 -110.125 120.0625 C-109.465 120.0625 -108.805 120.0625 -108.125 120.0625 C-108.125 119.0725 -108.125 118.0825 -108.125 117.0625 C-104.375 115.9375 -104.375 115.9375 -102.125 117.0625 C-102.125 116.4025 -102.125 115.7425 -102.125 115.0625 C-99.65 114.0725 -99.65 114.0725 -97.125 113.0625 C-97.125 111.7425 -97.125 110.4225 -97.125 109.0625 C-96.465 109.0625 -95.805 109.0625 -95.125 109.0625 C-95.125 109.7225 -95.125 110.3825 -95.125 111.0625 C-94.465 110.7325 -93.805 110.4025 -93.125 110.0625 C-92.795 109.0725 -92.465 108.0825 -92.125 107.0625 C-87.86436301 105.55874577 -83.5885338 104.71570007 -79.125 104.0625 C-79.14240234 103.17498047 -79.14240234 103.17498047 -79.16015625 102.26953125 C-79.16917969 101.47933594 -79.17820312 100.68914062 -79.1875 99.875 C-79.19910156 99.09769531 -79.21070313 98.32039063 -79.22265625 97.51953125 C-79.11950164 94.92416127 -78.64279993 92.60804792 -78.125 90.0625 C-77.64925931 86.3650928 -77.26715414 82.65630081 -76.875 78.94921875 C-76.23165362 73.16915362 -76.23165362 73.16915362 -75.125 72.0625 C-74.72733918 70.09161172 -74.38116924 68.11019134 -74.0625 66.125 C-73.79759766 64.50271484 -73.79759766 64.50271484 -73.52734375 62.84765625 C-73.07734138 60.20160252 -73.07734138 60.20160252 -73.125 58.0625 C-72.465 58.0625 -71.805 58.0625 -71.125 58.0625 C-70.8775 57.4025 -70.63 56.7425 -70.375 56.0625 C-69.38281835 53.68126404 -68.31453354 51.4689188 -67.125 49.1875 C-65.71898933 46.45301601 -64.92102806 44.28485696 -64.125 41.25 C-62.98412452 37.61345941 -62.13314382 37.15908509 -59.125 35.0625 C-57.64600686 32.41263729 -56.40410263 29.72506538 -55.2265625 26.9296875 C-54.29729867 24.85557064 -53.40691598 22.94055174 -52.125 21.0625 C-49.375 20.0625 -49.375 20.0625 -47.125 20.0625 C-46.91875 19.134375 -46.7125 18.20625 -46.5 17.25 C-45.125 14.0625 -45.125 14.0625 -42.125 12.1875 C-39.125 11.0625 -39.125 11.0625 -37.125 11.0625 C-37.125 10.4025 -37.125 9.7425 -37.125 9.0625 C-36.465 9.0625 -35.805 9.0625 -35.125 9.0625 C-34.795 7.7425 -34.465 6.4225 -34.125 5.0625 C-33.155625 4.98 -32.18625 4.8975 -31.1875 4.8125 C-28.04198259 4.39015598 -25.69470026 3.43779311 -22.875 2 C-18.29734315 -0.19034183 -14.4229062 -0.24132916 -9.41015625 0.01953125 C-5.76281356 0.08811376 -3.87266716 -0.84404284 0 0 Z M-14.6875 33.5625 C-16.20537109 33.98015625 -16.20537109 33.98015625 -17.75390625 34.40625 C-18.53636719 34.6228125 -19.31882812 34.839375 -20.125 35.0625 C-19.795 36.0525 -19.465 37.0425 -19.125 38.0625 C-20.4553125 38.43375 -20.4553125 38.43375 -21.8125 38.8125 C-27.49695461 40.95757721 -30.15801495 43.902526 -33.125 49.0625 C-33.846875 49.76375 -34.56875 50.465 -35.3125 51.1875 C-37.47251105 52.98735573 -37.47251105 52.98735573 -37.125 56.0625 C-37.785 56.0625 -38.445 56.0625 -39.125 56.0625 C-40.44126692 59.68223402 -41.125 62.15817131 -41.125 66.0625 C-42.115 66.0625 -43.105 66.0625 -44.125 66.0625 C-44.785 69.3625 -45.445 72.6625 -46.125 76.0625 C-42.66 75.5675 -42.66 75.5675 -39.125 75.0625 C-38.939375 74.1034375 -38.939375 74.1034375 -38.75 73.125 C-38.54375 72.444375 -38.3375 71.76375 -38.125 71.0625 C-37.135 70.5675 -37.135 70.5675 -36.125 70.0625 C-36.455 69.4025 -36.785 68.7425 -37.125 68.0625 C-36.42375 68.000625 -35.7225 67.93875 -35 67.875 C-31.12283115 66.77927837 -28.98574042 64.85822359 -26.125 62.0625 C-25.96 61.340625 -25.795 60.61875 -25.625 59.875 C-25.46 59.276875 -25.295 58.67875 -25.125 58.0625 C-24.155625 57.77375 -23.18625 57.485 -22.1875 57.1875 C-20.6715625 56.630625 -20.6715625 56.630625 -19.125 56.0625 C-17.8204344 53.06634054 -17.8204344 53.06634054 -17.125 50.0625 C-16.465 49.7325 -15.805 49.4025 -15.125 49.0625 C-15.125 48.4025 -15.125 47.7425 -15.125 47.0625 C-14.465 47.0625 -13.805 47.0625 -13.125 47.0625 C-11.4847108 44.99542177 -11.4847108 44.99542177 -9.9375 42.375 C-9.38707031 41.50488281 -8.83664062 40.63476562 -8.26953125 39.73828125 C-6.94730171 36.64706202 -7.14042081 35.22112109 -8.125 32.0625 C-10.32348934 32.0625 -12.59122194 32.9842164 -14.6875 33.5625 Z M-87.125 441.0625 C-87.80654934 442.38828758 -88.47477592 443.72107133 -89.125 445.0625 C-90.115 445.3925 -91.105 445.7225 -92.125 446.0625 C-91.980625 446.64 -91.83625 447.2175 -91.6875 447.8125 C-91.16666667 449.89583333 -90.64583333 451.97916667 -90.125 454.0625 C-89.465 454.0625 -88.805 454.0625 -88.125 454.0625 C-88.03863281 454.83078125 -87.95226562 455.5990625 -87.86328125 456.390625 C-87.36130355 459.10865699 -87.36130355 459.10865699 -85.48046875 460.609375 C-79.30123242 464.03857282 -73.24915972 465.89249919 -66.125 465.0625 C-63.03437488 463.60435892 -61.04443112 461.88555941 -59.125 459.0625 C-58.08426864 455.84947422 -58.08426864 455.84947422 -58.125 453.0625 C-57.465 453.0625 -56.805 453.0625 -56.125 453.0625 C-55.50745256 450.21228104 -55.02609566 447.93622057 -55.125 445.0625 C-57.32587451 442.10270325 -59.07790822 441.24925265 -62.6875 440.60546875 C-65.16990145 440.34100837 -67.63090537 440.15935804 -70.125 440.0625 C-70.125 439.4025 -70.125 438.7425 -70.125 438.0625 C-76.66580477 436.63541532 -81.49619597 437.17372045 -87.125 441.0625 Z " fill="#FE0000" transform="translate(404.125,30.9375)"/>
<path d="M0 0 C0.61875 0.350625 1.2375 0.70125 1.875 1.0625 C2.57625 1.371875 3.2775 1.68125 4 2 C4.66 1.67 5.32 1.34 6 1 C8.0625 1.3125 8.0625 1.3125 10 2 C10.33 2.66 10.66 3.32 11 4 C11.99 3.67 12.98 3.34 14 3 C16.5 5.3125 16.5 5.3125 19 8 C19 8.99 19 9.98 19 11 C19.99 11.495 19.99 11.495 21 12 C21.54908506 15.01996783 22 17.92619395 22 21 C22.04125 22.11375 22.0825 23.2275 22.125 24.375 C22.0101512 27.70561507 21.75308727 29.26080115 20 32 C19.34 32 18.68 32 18 32 C18 32.66 18 33.32 18 34 C17.02596117 35.02530403 16.0173873 36.01769502 15 37 C14.11533049 38.03346713 13.24096085 39.07580686 12.375 40.125 C9.92110328 43.09550656 9.1888794 43.8740804 6 46 C3.24009564 48.31831966 2.1879753 50.61883953 1 54 C0.34 54 -0.32 54 -1 54 C-1 54.99 -1 55.98 -1 57 C-1.66 57 -2.32 57 -3 57 C-3.33 57.66 -3.66 58.32 -4 59 C-4.99 59.99 -4.99 59.99 -6 61 C-6.99 61 -7.98 61 -9 61 C-9 61.66 -9 62.32 -9 63 C-9.5775 63.556875 -10.155 64.11375 -10.75 64.6875 C-14.3429803 68.38028531 -17.17133762 72.82086015 -18 78 C-19.32 77.67 -20.64 77.34 -22 77 C-22 77.66 -22 78.32 -22 79 C-22.66 79 -23.32 79 -24 79 C-24.33 80.32 -24.66 81.64 -25 83 C-25.66 83 -26.32 83 -27 83 C-27 83.66 -27 84.32 -27 85 C-27.5775 85.226875 -28.155 85.45375 -28.75 85.6875 C-32.56083774 87.91048868 -34.61929664 90.85788992 -36 95 C-37.4375 96.6875 -37.4375 96.6875 -39 98 C-39.66 98 -40.32 98 -41 98 C-41.33 98.99 -41.66 99.98 -42 101 C-42.639375 101.309375 -43.27875 101.61875 -43.9375 101.9375 C-46.12984546 102.80679014 -46.12984546 102.80679014 -46.88671875 104.81640625 C-48.20152467 107.39527119 -49.79667663 108.9922612 -51.875 111 C-52.89207031 111.99 -52.89207031 111.99 -53.9296875 113 C-54.95449219 113.99 -54.95449219 113.99 -56 115 C-58.36520133 117.28722766 -60.16364066 119.24546099 -62 122 C-62.66 122 -63.32 122 -64 122 C-64.4021875 122.804375 -64.4021875 122.804375 -64.8125 123.625 C-65.204375 124.40875 -65.59625 125.1925 -66 126 C-66.433125 126.969375 -66.86625 127.93875 -67.3125 128.9375 C-69.15952988 132.2895172 -71.23695628 134.36852979 -74 137 C-74.90743983 138.09464805 -75.80340839 139.19890968 -76.6875 140.3125 C-77.450625 141.199375 -78.21375 142.08625 -79 143 C-79.66 143 -80.32 143 -81 143 C-81.66 144.32 -82.32 145.64 -83 147 C-83.99 147 -84.98 147 -86 147 C-86.12375 147.5775 -86.2475 148.155 -86.375 148.75 C-87.02855574 151.10280066 -87.65913896 152.95342262 -89 155 C-90.33333333 155.33333333 -91.66666667 155.66666667 -93 156 C-93.70394612 157.31403276 -94.36345658 158.6520257 -95 160 C-97.54716565 162.74310146 -99.88140016 164.92093344 -103 167 C-103.33 167.99 -103.66 168.98 -104 170 C-104.66 170 -105.32 170 -106 170 C-106 170.66 -106 171.32 -106 172 C-106.598125 172.226875 -107.19625 172.45375 -107.8125 172.6875 C-110.19791667 173.88541667 -110.19791667 173.88541667 -111.5 176.5 C-113.15782917 179.26304862 -114.18025122 179.68411723 -117 181 C-117.33 181.99 -117.66 182.98 -118 184 C-118.66 184 -119.32 184 -120 184 C-120.66 185.32 -121.32 186.64 -122 188 C-122.66 188 -123.32 188 -124 188 C-124.226875 188.721875 -124.45375 189.44375 -124.6875 190.1875 C-126.26543356 193.5687862 -128.33546265 195.39742864 -131 198 C-131.91731706 199.25541393 -132.81312581 200.52680777 -133.6875 201.8125 C-134.8321875 203.3903125 -134.8321875 203.3903125 -136 205 C-136.66 205 -137.32 205 -138 205 C-138.2475 205.7425 -138.495 206.485 -138.75 207.25 C-140 210 -140 210 -142 211.9375 C-144.21217534 213.91277905 -144.21217534 213.91277905 -144.9375 216.9375 C-146.22398878 220.64561473 -148.18434971 222.32874203 -151 225 C-151.33 225.99 -151.66 226.98 -152 228 C-152.66 228 -153.32 228 -154 228 C-154 228.66 -154 229.32 -154 230 C-155.010625 230.721875 -156.02125 231.44375 -157.0625 232.1875 C-158.76190955 233.42460517 -158.76190955 233.42460517 -160 235 C-160.02524328 238.7500288 -160.02524328 238.7500288 -159 242 C-158.01 242.33 -157.02 242.66 -156 243 C-156 243.99 -156 244.98 -156 246 C-155.34 246 -154.68 246 -154 246 C-153.5978125 247.2065625 -153.5978125 247.2065625 -153.1875 248.4375 C-152.795625 249.283125 -152.40375 250.12875 -152 251 C-151.01 251.33 -150.02 251.66 -149 252 C-148.505 254.475 -148.505 254.475 -148 257 C-147.01 257 -146.02 257 -145 257 C-145 257.66 -145 258.32 -145 259 C-144.34 259 -143.68 259 -143 259 C-141.7109375 260.4609375 -141.7109375 260.4609375 -140.375 262.375 C-139.92898437 263.00148438 -139.48296875 263.62796875 -139.0234375 264.2734375 C-138 266 -138 266 -138 268 C-137.01 268.33 -136.02 268.66 -135 269 C-133.39453125 270.55859375 -133.39453125 270.55859375 -131.8125 272.4375 C-131.28269531 273.05496094 -130.75289063 273.67242187 -130.20703125 274.30859375 C-129 276 -129 276 -129 278 C-128.34 278.33 -127.68 278.66 -127 279 C-125.31183067 280.64488294 -123.64646685 282.31337542 -122 284 C-121.1028125 284.8353125 -121.1028125 284.8353125 -120.1875 285.6875 C-119 287 -119 287 -119 289 C-118.01 289.33 -117.02 289.66 -116 290 C-114.8125 292.5625 -114.8125 292.5625 -114 295 C-113.34 295 -112.68 295 -112 295 C-108 299.35294118 -108 299.35294118 -108 303 C-107.360625 303.268125 -106.72125 303.53625 -106.0625 303.8125 C-104 305 -104 305 -103 308 C-101.34928604 309.02611949 -99.68029994 310.02308143 -98 311 C-95.31979608 313.38240349 -94.14462392 314.56612823 -93 318 C-92.34 318.33 -91.68 318.66 -91 319 C-91 319.66 -91 320.32 -91 321 C-90.34 321 -89.68 321 -89 321 C-89 322.32 -89 323.64 -89 325 C-88.01 325.33 -87.02 325.66 -86 326 C-86 327.32 -86 328.64 -86 330 C-85.2575 330.268125 -84.515 330.53625 -83.75 330.8125 C-81.09090121 331.9607472 -79.12218515 333.03501375 -77 335 C-77 335.99 -77 336.98 -77 338 C-76.01 338.33 -75.02 338.66 -74 339 C-71.2332241 341.97172226 -71 342.74190625 -71 347 C-69.824375 347.37125 -69.824375 347.37125 -68.625 347.75 C-65.59062001 349.19494285 -65.32970275 350.05565819 -64 353 C-63.01 353.33 -62.02 353.66 -61 354 C-61 355.32 -61 356.64 -61 358 C-60.01 358 -59.02 358 -58 358 C-57 360 -57 360 -56 363 C-53.23842628 366.95634245 -53.23842628 366.95634245 -49 369 C-47 372 -47 372 -47 375 C-46.360625 375.28875 -45.72125 375.5775 -45.0625 375.875 C-43 377 -43 377 -42 379 C-42.33 379.66 -42.66 380.32 -43 381 C-42.01 380.67 -41.02 380.34 -40 380 C-39.38125 381.11375 -39.38125 381.11375 -38.75 382.25 C-37.06254382 384.90171685 -35.29127911 386.86674014 -33 389 C-33.33 389.99 -33.66 390.98 -34 392 C-33.38125 392.0825 -32.7625 392.165 -32.125 392.25 C-30 393 -30 393 -28.9375 394.9375 C-28.628125 395.618125 -28.31875 396.29875 -28 397 C-27.01 397.66 -26.02 398.32 -25 399 C-25.33 400.32 -25.66 401.64 -26 403 C-25.01 403.33 -24.02 403.66 -23 404 C-22.67 404.66 -22.34 405.32 -22 406 C-19.98330173 407.13350534 -19.98330173 407.13350534 -18 408 C-18.66 408.66 -19.32 409.32 -20 410 C-17.61426621 411.89213369 -15.92824652 413.02391783 -13 414 C-12.855625 414.639375 -12.71125 415.27875 -12.5625 415.9375 C-12.376875 416.618125 -12.19125 417.29875 -12 418 C-11.34 418.309375 -10.68 418.61875 -10 418.9375 C-9.34 419.288125 -8.68 419.63875 -8 420 C-7.25 422.625 -7.25 422.625 -7 425 C-6.34 425 -5.68 425 -5 425 C-2 430.75 -2 430.75 -2 433 C-1.236875 433.020625 -0.47375 433.04125 0.3125 433.0625 C1.199375 433.371875 2.08625 433.68125 3 434 C4.625 437.375 4.625 437.375 6 441 C6.5775 441.495 7.155 441.99 7.75 442.5 C9 444 9 444 8.6875 447.6875 C8.3471875 449.3271875 8.3471875 449.3271875 8 451 C8.66 451 9.32 451 10 451 C10.33 452.65 10.66 454.3 11 456 C12.32 455.67 13.64 455.34 15 455 C14.54625 455.721875 14.0925 456.44375 13.625 457.1875 C11.75260283 460.4281874 10.29862236 463.50688821 9.5625 467.1875 C9 469 9 469 6 471 C5.319375 471.53625 4.63875 472.0725 3.9375 472.625 C2 474 2 474 0 474 C0 473.34 0 472.68 0 472 C-0.78375 472.515625 -1.5675 473.03125 -2.375 473.5625 C-8.92341181 476.15928399 -15.56875907 474.53864774 -22 472 C-22 470.68 -22 469.36 -22 468 C-23.65 467.67 -25.3 467.34 -27 467 C-27 466.01 -27 465.02 -27 464 C-27.763125 463.855625 -28.52625 463.71125 -29.3125 463.5625 C-32 463 -32 463 -35 462 C-35.6875 459.9375 -35.6875 459.9375 -36 458 C-36.61875 457.87625 -37.2375 457.7525 -37.875 457.625 C-40 457 -40 457 -42 455 C-42 454.01 -42 453.02 -42 452 C-43.32 451.67 -44.64 451.34 -46 451 C-46 450.34 -46 449.68 -46 449 C-46.8971875 448.690625 -46.8971875 448.690625 -47.8125 448.375 C-50.7906249 446.50303578 -51.44758294 444.10483412 -53 441 C-54.31647119 440.30062468 -55.65022151 439.63270867 -57 439 C-58.5213819 436.77644184 -59.73709795 434.56336154 -60.875 432.125 C-62.29239201 429.44770399 -64.05679944 427.10553565 -65.84375 424.6640625 C-67 423 -67 423 -68 420.875 C-69.4985912 418.0651415 -71.70500436 416.18825165 -74 414 C-78.88888889 409.33333333 -78.88888889 409.33333333 -80 406 C-80.61875 405.71125 -81.2375 405.4225 -81.875 405.125 C-84 404 -84 404 -85.375 401.6875 C-87.0742302 398.87723467 -88.98101094 397.37987617 -91.53125 395.3671875 C-93.50194799 393.53276118 -94.62935528 391.34662062 -95.85546875 388.97265625 C-97.75822062 385.69316924 -100.21119854 382.84515472 -102.609375 379.91796875 C-104 378 -104 378 -104 376 C-105.14275391 375.91685547 -105.14275391 375.91685547 -106.30859375 375.83203125 C-109 375 -109 375 -110.66015625 372.63671875 C-111.12292969 371.66347656 -111.58570312 370.69023437 -112.0625 369.6875 C-113.97635637 365.71664565 -115.85229522 363.06647369 -119 360 C-119 359.34 -119 358.68 -119 358 C-119.4125 357.5875 -119.825 357.175 -120.25 356.75 C-122 355 -122 355 -124.0625 351.875 C-125.69145453 348.94935958 -125.69145453 348.94935958 -128 348 C-128 347.34 -128 346.68 -128 346 C-128.99 345.67 -129.98 345.34 -131 345 C-131.309375 344.21625 -131.61875 343.4325 -131.9375 342.625 C-132.76366247 339.90611332 -132.76366247 339.90611332 -134.9375 338.625 C-137.40278034 336.68265791 -138.04187354 334.7249205 -139.140625 331.84375 C-140.08526913 329.81705896 -141.22052689 328.36875008 -142.6875 326.6875 C-145 324 -145 324 -145 322 C-145.66 322 -146.32 322 -147 322 C-150 318.53846154 -150 318.53846154 -150 316 C-150.66 316 -151.32 316 -152 316 C-152.24234375 315.48050781 -152.4846875 314.96101563 -152.734375 314.42578125 C-154.78149174 310.16620374 -156.96997116 306.65693136 -160 303 C-160.495 301.515 -160.495 301.515 -161 300 C-161.598125 299.46375 -162.19625 298.9275 -162.8125 298.375 C-165.48120853 295.47754502 -166.63166189 292.55807679 -168.0703125 288.92578125 C-168.84324067 286.82377459 -168.84324067 286.82377459 -171 286 C-171 285.34 -171 284.68 -171 284 C-172.98 283.34 -174.96 282.68 -177 282 C-177.33 280.02 -177.66 278.04 -178 276 C-179.32 276 -180.64 276 -182 276 C-182.66 275.67 -183.32 275.34 -184 275 C-184 274.34 -184 273.68 -184 273 C-184.66 272.67 -185.32 272.34 -186 272 C-187.0703125 270.44140625 -187.0703125 270.44140625 -188.125 268.5625 C-188.47820312 267.94503906 -188.83140625 267.32757813 -189.1953125 266.69140625 C-190 265 -190 265 -190 263 C-191.32 262.67 -192.64 262.34 -194 262 C-194.66 259.36 -195.32 256.72 -196 254 C-196.66 254 -197.32 254 -198 254 C-201 249.61538462 -201 249.61538462 -201 247 C-201.66 246.67 -202.32 246.34 -203 246 C-203.72693904 244.02111039 -204.39816251 242.02045442 -205 240 C-204.34 240 -203.68 240 -203 240 C-203.05671875 239.13503906 -203.1134375 238.27007812 -203.171875 237.37890625 C-202.97666938 233.5413412 -202.01784848 231.3287935 -200.25 227.9375 C-199.73953125 226.93589844 -199.2290625 225.93429687 -198.703125 224.90234375 C-195.77101841 219.90565752 -192.07341116 216.07341116 -188 212 C-186.42283955 210.13466702 -184.8673543 208.25538039 -183.33203125 206.35546875 C-182.89246094 205.90816406 -182.45289063 205.46085938 -182 205 C-181.34 205 -180.68 205 -180 205 C-179.505 202.03 -179.505 202.03 -179 199 C-177.68 198.67 -176.36 198.34 -175 198 C-174.87625 197.195625 -174.87625 197.195625 -174.75 196.375 C-173.29539848 191.76876186 -170.35544458 188.35544458 -167 185 C-165.9790625 183.4221875 -165.9790625 183.4221875 -164.9375 181.8125 C-163.9784375 180.4203125 -163.9784375 180.4203125 -163 179 C-162.34 179 -161.68 179 -161 179 C-160.731875 178.236875 -160.46375 177.47375 -160.1875 176.6875 C-158.99806768 173.99562684 -158.0291793 173.0291793 -156 171 C-155.00331765 169.23169261 -154.00733441 167.46295307 -153.0234375 165.6875 C-151.64770201 163.41911172 -149.92895155 161.81872575 -148 160 C-146.77801958 158.67916274 -145.57091854 157.34447985 -144.375 156 C-143.48941406 155.01 -143.48941406 155.01 -142.5859375 154 C-141.05767301 152.07273049 -140.0079886 150.23553907 -139 148 C-138.34 148 -137.68 148 -137 148 C-136.73960937 147.42507812 -136.47921875 146.85015625 -136.2109375 146.2578125 C-134.90981748 143.83185323 -133.43123945 141.94941474 -131.625 139.875 C-131.03976563 139.19179687 -130.45453125 138.50859375 -129.8515625 137.8046875 C-127.98571225 135.98607396 -126.32413465 135.11756262 -124 134 C-123.67 133.34 -123.34 132.68 -123 132 C-122.34 132 -121.68 132 -121 132 C-121 130.02 -121 128.04 -121 126 C-119.68 125.67 -118.36 125.34 -117 125 C-116.855625 124.38125 -116.71125 123.7625 -116.5625 123.125 C-116 121 -116 121 -115 119 C-114.34 119 -113.68 119 -113 119 C-112.34 117.02 -111.68 115.04 -111 113 C-109.35 113.33 -107.7 113.66 -106 114 C-105.731875 112.9275 -105.46375 111.855 -105.1875 110.75 C-104.13882569 107.43839693 -103.37247839 105.47133166 -101 103 C-100.34 103 -99.68 103 -99 103 C-98.505 101.515 -98.505 101.515 -98 100 C-97.02995889 98.97091291 -96.02512249 97.97422989 -95 97 C-93.25938947 94.92419069 -91.53247939 92.83833053 -89.81640625 90.7421875 C-87.82183821 88.82911794 -86.64968432 88.52657574 -84 88 C-82.78309467 86.23470405 -82.78309467 86.23470405 -82 84 C-81.443125 82.63875 -81.443125 82.63875 -80.875 81.25 C-80.58625 80.5075 -80.2975 79.765 -80 79 C-79.34 79 -78.68 79 -78 79 C-78 78.34 -78 77.68 -78 77 C-77.278125 76.62875 -76.55625 76.2575 -75.8125 75.875 C-72.50693107 73.67128738 -71.35124817 71.5548868 -69.3828125 68.1875 C-65.78001265 62.48815561 -60.81778048 57.6801296 -56 53 C-55.01 52.01 -55.01 52.01 -54 51 C-53.01 50.8453125 -53.01 50.8453125 -52 50.6875 C-51.34 50.460625 -50.68 50.23375 -50 50 C-48.70339566 47.50965614 -48.70339566 47.50965614 -48 45 C-47.34 45 -46.68 45 -46 45 C-45.67 43.68 -45.34 42.36 -45 41 C-44.34 41 -43.68 41 -43 41 C-42.67 40.01 -42.34 39.02 -42 38 C-41.34 38 -40.68 38 -40 38 C-39.731875 37.360625 -39.46375 36.72125 -39.1875 36.0625 C-38 34 -38 34 -35 33 C-33.79117904 30.99983534 -33.79117904 30.99983534 -33 29 C-32.34 29 -31.68 29 -31 29 C-30.62875 27.88625 -30.62875 27.88625 -30.25 26.75 C-28.08242807 21.98134175 -24.14521904 19.08234236 -20 16 C-19.01 15.67 -18.02 15.34 -17 15 C-15.82614151 12.99753551 -14.98648837 10.96622092 -14.125 8.8125 C-13 7 -13 7 -11.25 6.375 C-10.13625 6.189375 -10.13625 6.189375 -9 6 C-6.99617991 5.34490497 -4.99541868 4.68025637 -3 4 C-3 3.34 -3 2.68 -3 2 C-2.01 2 -1.02 2 0 2 C0 1.34 0 0.68 0 0 Z M18 25 C18.66 25.66 19.32 26.32 20 27 C20 26.34 20 25.68 20 25 C19.34 25 18.68 25 18 25 Z " fill="#FE0000" transform="translate(233,63)"/>
<path d="M0 0 C0.33 0.66 0.66 1.32 1 2 C1.99 2 2.98 2 4 2 C4 2.66 4 3.32 4 4 C7.99142086 5.41952702 7.99142086 5.41952702 12.125 6.25 C15.27758994 7.51103598 16.3717828 10.1506199 18 13 C18 13.66 18 14.32 18 15 C18.70125 15.165 19.4025 15.33 20.125 15.5 C23.76034872 17.39670368 25.29642268 19.78176739 27.5703125 23.125 C29.03738649 25.25987109 29.03738649 25.25987109 32 27 C32 27.66 32 28.32 32 29 C32.99 29.33 33.98 29.66 35 30 C40 35.46511628 40 35.46511628 40 38 C41.32 38.33 42.64 38.66 44 39 C44 39.66 44 40.32 44 41 C45.485 41.495 45.485 41.495 47 42 C47.3721042 43.32303717 47.70630173 44.65737935 48 46 C48.66 46.33 49.32 46.66 50 47 C50.33 47.99 50.66 48.98 51 50 C51.763125 50.28875 52.52625 50.5775 53.3125 50.875 C56.6894015 52.28858668 57.78577929 54.11480332 60 57 C61.47220016 58.184161 62.94446251 59.36824586 64.41796875 60.55078125 C68.2152941 64.02931879 71.10418675 68.41509964 73.625 72.875 C75.1693089 75.26165922 76.37404364 76.00394759 79 77 C79 77.66 79 78.32 79 79 C80.485 79.495 80.485 79.495 82 80 C82.474375 81.134375 82.94875 82.26875 83.4375 83.4375 C85.13204823 87.30106996 85.3808717 87.5097707 89 89 C92.40715031 92.0747454 94.67108359 95.08318604 97 99 C98.485 99.99 98.485 99.99 100 101 C100 101.66 100 102.32 100 103 C100.62390625 103.23460937 101.2478125 103.46921875 101.890625 103.7109375 C104.60255941 105.36823075 104.88975997 106.6141599 105.75 109.625 C106.11351562 110.85089844 106.11351562 110.85089844 106.484375 112.1015625 C106.65453125 112.72804688 106.8246875 113.35453125 107 114 C109.475 113.505 109.475 113.505 112 113 C112.433125 114.4540625 112.433125 114.4540625 112.875 115.9375 C113.64214682 119.10664203 113.64214682 119.10664203 116 120 C118 122 118 122 118 125 C119.32 125.66 120.64 126.32 122 127 C122 128.65 122 130.3 122 132 C122.66 132 123.32 132 124 132 C124 132.99 124 133.98 124 135 C124.72574219 135.06316406 125.45148438 135.12632812 126.19921875 135.19140625 C129.89914349 136.25958536 131.31108606 138.04614757 133.8125 140.9375 C134.60269531 141.83339844 135.39289063 142.72929687 136.20703125 143.65234375 C138 146 138 146 138 148 C138.99 148.33 139.98 148.66 141 149 C142.02137457 150.65365406 143.01612294 152.32376502 144 154 C146.44941381 157.06176727 149.0830869 159.96847277 151.6875 162.8984375 C152.22375 163.50945312 152.76 164.12046875 153.3125 164.75 C153.80363281 165.30171875 154.29476562 165.8534375 154.80078125 166.421875 C156 168 156 168 157 171 C157.99 171.9590625 157.99 171.9590625 159 172.9375 C161 175 161 175 161.5 177.125 C161.665 177.74375 161.83 178.3625 162 179 C162.61875 179.28875 163.2375 179.5775 163.875 179.875 C166.94696491 181.50133436 167.4901946 183.91999698 169 187 C170.62652316 188.70586575 172.29006566 190.3777546 174 192 C176 195 176 195 176 198 C177.32 198.33 178.64 198.66 180 199 C180.0825 199.94875 180.165 200.8975 180.25 201.875 C180.4975 202.90625 180.745 203.9375 181 205 C182.33048441 205.67233434 183.66426863 206.33815112 185 207 C186.74609375 208.98828125 186.74609375 208.98828125 188.4375 211.3125 C190.39147432 213.93581447 192.1551007 216.14375186 194.5625 218.375 C200.09231544 224.33018586 204 231.78897531 204 240 C204.66 240.33 205.32 240.66 206 241 C204.25 245.875 204.25 245.875 202 247 C201.28272222 248.64551962 200.61674772 250.31422289 200 252 C199.67 252.66 199.34 253.32 199 254 C198.34 254 197.68 254 197 254 C196.34 256.64 195.68 259.28 195 262 C193.68 262.33 192.36 262.66 191 263 C189.78702351 265.2806707 189.78702351 265.2806707 189 268 C188.33333333 269.66666667 187.66666667 271.33333333 187 273 C186.34 273 185.68 273 185 273 C184.67 273.99 184.34 274.98 184 276 C183.34 275.67 182.68 275.34 182 275 C181.01 275.33 180.02 275.66 179 276 C178.67 277.98 178.34 279.96 178 282 C176.02 282.66 174.04 283.32 172 284 C172 284.66 172 285.32 172 286 C171.55785156 286.43054688 171.11570312 286.86109375 170.66015625 287.3046875 C168.62295352 289.38503099 167.66255992 291.49054513 166.4375 294.125 C164.22096317 298.88951841 164.22096317 298.88951841 162 300 C161.54625 300.9075 161.0925 301.815 160.625 302.75 C159 306 159 306 156.9375 308.5625 C155.01135605 310.98571335 153.99784236 313.08962645 153 316 C152.34 316 151.68 316 151 316 C150.690625 316.61875 150.38125 317.2375 150.0625 317.875 C149.375 319.25 148.6875 320.625 148 322 C147.34 322 146.68 322 146 322 C145.6596875 323.051875 145.6596875 323.051875 145.3125 324.125 C143.72125168 327.61059155 141.44647128 330.06423446 139 333 C138.32033324 334.66140763 137.65061095 336.32700041 137 338 C136.01 338.66 135.02 339.32 134 340 C132.93753473 341.96752828 131.92862192 343.96587579 131 346 C130.34 346 129.68 346 129 346 C129 346.66 129 347.32 129 348 C127.33333333 349.66666667 125.66666667 351.33333333 124 353 C122.82425289 355.09989652 122.82425289 355.09989652 122 357 C121.34 357.66 120.68 358.32 120 359 C119.5359375 359.9590625 119.5359375 359.9590625 119.0625 360.9375 C118 363 118 363 116.58203125 364.33984375 C114.17800889 366.86258327 112.96318484 369.91412166 111.4765625 373.0390625 C110 375 110 375 107.4609375 375.4609375 C106.64882813 375.63882812 105.83671875 375.81671875 105 376 C103.85969664 378.29442565 103.85969664 378.29442565 103 381 C101.74257608 382.70860151 100.42608878 384.37486626 99.0625 386 C96.97528253 388.49685828 95.08801921 390.85074049 93.43359375 393.65625 C91.50602185 396.80759371 88.82523601 398.64563666 86 401 C84.9731657 402.6502694 83.96432076 404.31243867 83 406 C82.34 406 81.68 406 81 406 C80.9071875 406.86625 80.9071875 406.86625 80.8125 407.75 C79.66790652 410.91964348 77.67439695 411.99420228 75 414 C71.26692688 417.35976581 68.74408977 420.80723735 66.19921875 425.078125 C65 427 65 427 62.75 429.75 C60.89477226 431.81749942 60.89477226 431.81749942 60.5 434.0625 C59.77936841 436.85494743 58.10105404 438.08433308 56 440 C54.01095892 441.8299178 52.86131198 443.24270404 51.5 445.625 C50 448 50 448 47 449 C46.67 449.99 46.34 450.98 46 452 C45.01 452 44.02 452 43 452 C42.87625 452.61875 42.7525 453.2375 42.625 453.875 C42 456 42 456 40 458 C39.01 458 38.02 458 37 458 C36.938125 458.61875 36.87625 459.2375 36.8125 459.875 C36 462 36 462 33.625 463.25 C31 464 31 464 28 464 C28 464.66 28 465.32 28 466 C27.360625 466.2475 26.72125 466.495 26.0625 466.75 C23.80696091 467.80283433 23.80696091 467.80283433 23.37109375 470.078125 C23.18740234 471.02945313 23.18740234 471.02945313 23 472 C21.10614563 472.50744423 19.20981334 473.00564574 17.3125 473.5 C15.72888672 473.91765625 15.72888672 473.91765625 14.11328125 474.34375 C9.77572725 475.25806502 7.14227594 475.60921384 3.1875 473.5 C2.1046875 472.7575 2.1046875 472.7575 1 472 C1 472.66 1 473.32 1 474 C-1.91517292 472.92598892 -3.77810176 472.22189824 -6 470 C-6.99 469.34 -7.98 468.68 -9 468 C-9.5625 466.25 -9.5625 466.25 -10 464 C-11.05592362 460.55064952 -11.98706416 458.01940376 -14 455 C-12.68 455.33 -11.36 455.66 -10 456 C-9.67 454.35 -9.34 452.7 -9 451 C-8.34 451 -7.68 451 -7 451 C-7.4021875 449.453125 -7.4021875 449.453125 -7.8125 447.875 C-8 444 -8 444 -5.625 440.8125 C-4.75875 439.884375 -3.8925 438.95625 -3 438 C-2.14720662 435.78264561 -2.14720662 435.78264561 -2 434 C-0.35 433.67 1.3 433.34 3 433 C3.309375 432.05125 3.61875 431.1025 3.9375 430.125 C5 427 5 427 6 425 C6.66 425 7.32 425 8 425 C8.2475 424.05125 8.495 423.1025 8.75 422.125 C10 419 10 419 12.125 417.625 C12.74375 417.41875 13.3625 417.2125 14 417 C14 416.01 14 415.02 14 414 C15.175625 413.5978125 15.175625 413.5978125 16.375 413.1875 C19.28114923 412.15185568 19.28114923 412.15185568 21 409 C20.34 408.67 19.68 408.34 19 408 C19.9590625 407.5978125 19.9590625 407.5978125 20.9375 407.1875 C23.33131686 406.11332248 23.33131686 406.11332248 24 403 C24.99 403 25.98 403 27 403 C26.67 401.68 26.34 400.36 26 399 C26.99 398.34 27.98 397.68 29 397 C29.495 396.13375 29.99 395.2675 30.5 394.375 C30.995 393.59125 31.49 392.8075 32 392 C32.99 392 33.98 392 35 392 C34.505 390.515 34.505 390.515 34 389 C35.14453125 387.24609375 35.14453125 387.24609375 36.8125 385.4375 C37.62654297 384.53837891 37.62654297 384.53837891 38.45703125 383.62109375 C39.62127433 382.39790166 40.80591859 381.19408141 42 380 C42.66 380.33 43.32 380.66 44 381 C43.505 379.515 43.505 379.515 43 378 C44.375 376.5 44.375 376.5 46 375 C46.66 375 47.32 375 48 375 C48.144375 374.38125 48.28875 373.7625 48.4375 373.125 C49 371 49 371 50 369 C50.804375 368.54625 51.60875 368.0925 52.4375 367.625 C55.16428095 365.89582184 55.86203619 364.93973984 57 362 C58.54498073 358.91003854 59.70543298 358.09818901 63 357 C63 356.01 63 355.02 63 354 C64.8125 352 64.8125 352 67 350 C67.804375 349.13375 67.804375 349.13375 68.625 348.25 C70 347 70 347 72 347 C71.938125 346.2575 71.87625 345.515 71.8125 344.75 C72.03353711 341.50812237 72.72162458 340.27837542 75 338 C75.99 338 76.98 338 78 338 C78 336.68 78 335.36 78 334 C84.75 330 84.75 330 87 330 C87 328.68 87 327.36 87 326 C87.99 325.67 88.98 325.34 90 325 C90 323.68 90 322.36 90 321 C90.66 321 91.32 321 92 321 C92 320.34 92 319.68 92 319 C92.66 318.67 93.32 318.34 94 318 C94.33 317.01 94.66 316.02 95 315 C96.5234375 313.5 96.5234375 313.5 98.375 312 C101.85277661 309.17620609 101.85277661 309.17620609 105 306 C105 305.34 105 304.68 105 304 C106.32 303.67 107.64 303.34 109 303 C109 301.68 109 300.36 109 299 C110.875 296.75 110.875 296.75 113 295 C113.66 295 114.32 295 115 295 C115.268125 294.195625 115.53625 293.39125 115.8125 292.5625 C116.204375 291.716875 116.59625 290.87125 117 290 C117.99 289.67 118.98 289.34 120 289 C120.68486725 287.67592331 121.34870203 286.34090759 122 285 C123.29233607 283.62689293 124.62437146 282.28965176 126 281 C126.66 280.34 127.32 279.68 128 279 C128.66 278.67 129.32 278.34 130 278 C130.268125 277.2575 130.53625 276.515 130.8125 275.75 C132.28257893 272.34560669 134.22638662 270.42691171 137 268 C137.66 268 138.32 268 139 268 C139.268125 267.2575 139.53625 266.515 139.8125 265.75 C140.95276751 263.10938051 142.09380306 261.14447156 144 259 C144.66 259 145.32 259 146 259 C146 258.34 146 257.68 146 257 C146.99 257 147.98 257 149 257 C149.99 254.03 149.99 254.03 151 251 C151.66 251 152.32 251 153 251 C153.66 249.35 154.32 247.7 155 246 C155.66 246 156.32 246 157 246 C157 245.01 157 244.02 157 243 C157.99 242.67 158.98 242.34 160 242 C161.22969878 238.48809191 161.22969878 238.48809191 162 235 C158.63823605 231.50751236 158.63823605 231.50751236 154.8125 228.5625 C152.3107826 226.40584707 151.83546828 224.13300604 151 221 C150.34 221 149.68 221 149 221 C147.7109375 219.3203125 147.7109375 219.3203125 146.375 217.125 C145.92898438 216.40570313 145.48296875 215.68640625 145.0234375 214.9453125 C144 213 144 213 144 211 C142.68 210.34 141.36 209.68 140 209 C140 207.68 140 206.36 140 205 C139.34 205 138.68 205 138 205 C135.79555489 202.79555489 133.9258356 200.4510635 132 198 C131.4225 197.278125 130.845 196.55625 130.25 195.8125 C129 194 129 194 129 192 C127.68 191.34 126.36 190.68 125 190 C125 189.34 125 188.68 125 188 C123.68 187.34 122.36 186.68 121 186 C121 185.34 121 184.68 121 184 C120.01 183.67 119.02 183.34 118 183 C118 182.34 118 181.68 118 181 C117.4225 180.79375 116.845 180.5875 116.25 180.375 C113.20621281 178.51490783 111.94514167 175.94908576 110 173 C109.01 172.67 108.02 172.34 107 172 C107 171.34 107 170.68 107 170 C106.34 170 105.68 170 105 170 C104.773125 169.401875 104.54625 168.80375 104.3125 168.1875 C102.64983458 165.41639096 100.75814432 164.64175257 98 163 C94 158.56756757 94 158.56756757 94 156 C93.401875 155.938125 92.80375 155.87625 92.1875 155.8125 C89.07733153 154.65729457 88.39582292 152.93122813 87 150 C87 149.01 87 148.02 87 147 C86.0409375 146.8453125 86.0409375 146.8453125 85.0625 146.6875 C84.0415625 146.3471875 84.0415625 146.3471875 83 146 C82.67 145.01 82.34 144.02 82 143 C81.34 143 80.68 143 80 143 C78.62751319 141.44684614 77.32521299 139.83114316 76.0625 138.1875 C73.82169346 135.28492256 71.60445053 132.57502171 69 130 C65 124.4 65 124.4 65 122 C63.515 121.505 63.515 121.505 62 121 C61.4121875 119.948125 61.4121875 119.948125 60.8125 118.875 C58.64166185 115.43160155 56.02679058 113.31362018 52.9375 110.70703125 C50.05202425 108.16478749 47.72079454 105.44158909 46 102 C43.98330173 100.86649466 43.98330173 100.86649466 42 100 C42 99.34 42 98.68 42 98 C41.34 98 40.68 98 40 98 C37.15135014 95.74481886 36.32258778 93.30646945 35 90 C32.99007262 87.53327094 30.88881899 86.29498782 28 85 C28 84.34 28 83.68 28 83 C27.34 83 26.68 83 26 83 C25.67 81.68 25.34 80.36 25 79 C24.34 79 23.68 79 23 79 C23 78.34 23 77.68 23 77 C21.02 77.495 21.02 77.495 19 78 C18.38125 76.4840625 18.38125 76.4840625 17.75 74.9375 C15.04398835 67.94172625 15.04398835 67.94172625 10 63 C10 62.34 10 61.68 10 61 C9.38125 60.855625 8.7625 60.71125 8.125 60.5625 C6 60 6 60 4 59 C4 58.34 4 57.68 4 57 C3.34 57 2.68 57 2 57 C2 56.01 2 55.02 2 54 C1.34 53.67 0.68 53.34 0 53 C-0.66666667 51.66666667 -1.33333333 50.33333333 -2 49 C-3.88964785 46.86387634 -5.58360724 45.61092851 -8 44 C-9.71391306 42.28608694 -11.18124492 40.35975253 -12.72265625 38.4921875 C-14.03755435 36.90839583 -14.03755435 36.90839583 -15.8125 35.25 C-17 34 -17 34 -17 32 C-17.99 31.67 -18.98 31.34 -20 31 C-21.70165808 25.89502576 -21.08937568 21.17453446 -20 16 C-19.9629721 14.3337447 -19.95240038 12.66598681 -20 11 C-19.34 11 -18.68 11 -18 11 C-17.9175 10.4225 -17.835 9.845 -17.75 9.25 C-16.79468987 6.3840696 -15.21530827 5.0009236 -13 3 C-12.01 3.33 -11.02 3.66 -10 4 C-9.67 3.34 -9.34 2.68 -9 2 C-6.2303041 1.27113266 -3.87137415 1 -1 1 C-0.67 0.67 -0.34 0.34 0 0 Z M-19 25 C-18.67 25.66 -18.34 26.32 -18 27 C-17.67 26.34 -17.34 25.68 -17 25 C-17.66 25 -18.32 25 -19 25 Z " fill="#FE0000" transform="translate(707,63)"/>
<path d="M0 0 C0.66 0 1.32 0 2 0 C2 0.66 2 1.32 2 2 C1.34 2 0.68 2 0 2 C0 1.34 0 0.68 0 0 Z " fill="#FF0000" transform="translate(684,82)"/>
<path d="M0 0 C0.66 0 1.32 0 2 0 C2 0.66 2 1.32 2 2 C1.34 2 0.68 2 0 2 C0 1.34 0 0.68 0 0 Z " fill="#FF0000" transform="translate(255,82)"/>
<path d="M0 0 C0.99 0.495 0.99 0.495 2 1 C1.01 1.495 1.01 1.495 0 2 C0 1.34 0 0.68 0 0 Z " fill="#FF0000" transform="translate(759,429)"/>
<path d="M0 0 C0.66 0 1.32 0 2 0 C1.67 0.66 1.34 1.32 1 2 C0.67 1.34 0.34 0.68 0 0 Z " fill="#FF0000" transform="translate(180,429)"/>
<path d="" fill="#FF0000" transform="translate(0,0)"/>
<path d="" fill="#FF0000" transform="translate(0,0)"/>
<path d="" fill="#FF0000" transform="translate(0,0)"/>
<path d="" fill="#FF0000" transform="translate(0,0)"/>
<path d="M0 0 C2 1 2 1 2 1 Z " fill="#FF0000" transform="translate(694,104)"/>
<path d="M0 0 C2 1 2 1 2 1 Z " fill="#FF0000" transform="translate(245,104)"/>
<path d="M0 0 C2 1 2 1 2 1 Z " fill="#FF0000" transform="translate(688,97)"/>
<path d="M0 0 C2 1 2 1 2 1 Z " fill="#FF0000" transform="translate(251,97)"/>
<path d="M0 0 C2 1 2 1 2 1 Z " fill="#FF0000" transform="translate(684,75)"/>
<path d="M0 0 C2 1 2 1 2 1 Z " fill="#FF0000" transform="translate(255,75)"/>
<path d="M0 0 C2 1 2 1 2 1 Z " fill="#FF0000" transform="translate(717,68)"/>
<path d="M0 0 C2 1 2 1 2 1 Z " fill="#FF0000" transform="translate(222,68)"/>
<path d="" fill="#FF0000" transform="translate(0,0)"/>
<path d="" fill="#FF0000" transform="translate(0,0)"/>
<path d="" fill="#FF0000" transform="translate(0,0)"/>
<path d="" fill="#FF0000" transform="translate(0,0)"/>
<path d="" fill="#FF0000" transform="translate(0,0)"/>
<path d="" fill="#FF0000" transform="translate(0,0)"/>
<path d="" fill="#FF0000" transform="translate(0,0)"/>
<path d="" fill="#FF0000" transform="translate(0,0)"/>
<path d="" fill="#FF0000" transform="translate(0,0)"/>
<path d="" fill="#FF0000" transform="translate(0,0)"/>
<path d="" fill="#FF0000" transform="translate(0,0)"/>
<path d="" fill="#FF0000" transform="translate(0,0)"/>
<path d="" fill="#FF0000" transform="translate(0,0)"/>
<path d="" fill="#FF0000" transform="translate(0,0)"/>
<path d="" fill="#FF0000" transform="translate(0,0)"/>
<path d="" fill="#FF0000" transform="translate(0,0)"/>
<path d="" fill="#FF0000" transform="translate(0,0)"/>
<path d="" fill="#FF0000" transform="translate(0,0)"/>
<path d="" fill="#FF0000" transform="translate(0,0)"/>
<path d="" fill="#FF0000" transform="translate(0,0)"/>
<path d="" fill="#FF0000" transform="translate(0,0)"/>
<path d="" fill="#FF0000" transform="translate(0,0)"/>
<path d="" fill="#FF0000" transform="translate(0,0)"/>
<path d="" fill="#FF0000" transform="translate(0,0)"/>
<path d="" fill="#FF0000" transform="translate(0,0)"/>
<path d="" fill="#FF0000" transform="translate(0,0)"/>
<path d="" fill="#FF0000" transform="translate(0,0)"/>
<path d="" fill="#FF0000" transform="translate(0,0)"/>
<path d="" fill="#FF0000" transform="translate(0,0)"/>
<path d="" fill="#FF0000" transform="translate(0,0)"/>
<path d="" fill="#FF0000" transform="translate(0,0)"/>
<path d="" fill="#FF0000" transform="translate(0,0)"/>
<path d="" fill="#FF0000" transform="translate(0,0)"/>
<path d="" fill="#FF0000" transform="translate(0,0)"/>
<path d="" fill="#FF0000" transform="translate(0,0)"/>
<path d="" fill="#FF0000" transform="translate(0,0)"/>
<path d="" fill="#FF0000" transform="translate(0,0)"/>
<path d="" fill="#FF0000" transform="translate(0,0)"/>
<path d="" fill="#FF0000" transform="translate(0,0)"/>
<path d="" fill="#FF0000" transform="translate(0,0)"/>
<path d="" fill="#FF0000" transform="translate(0,0)"/>
<path d="" fill="#FF0000" transform="translate(0,0)"/>
<path d="" fill="#FF0000" transform="translate(0,0)"/>
<path d="" fill="#FF0000" transform="translate(0,0)"/>
</svg>
