<svg version="1.1" id="Layer_1" xmlns="http://www.w3.org/2000/svg" xmlns:xlink="http://www.w3.org/1999/xlink" x="0px" y="0px"
	 width="100%" viewBox="0 0 400 400" enable-background="new 0 0 400 400" xml:space="preserve">
<path fill="#CE1211" opacity="1.000000" stroke="none" 
	d="
M54.000000,1.000000 
	C169.635132,1.000000 285.270264,1.000000 400.952698,1.000000 
	C400.952698,134.265442 400.952698,267.530884 400.952698,400.898193 
	C267.770966,400.898193 134.541840,400.898193 1.156354,400.898193 
	C1.156354,267.666809 1.156354,134.333420 1.156354,1.000000 
	C17.406832,1.000000 33.735561,1.000000 50.514465,1.346551 
	C44.515511,7.682423 43.631519,15.883512 43.266289,23.758837 
	C42.356182,43.382954 41.621124,63.048492 41.846802,82.685555 
	C42.456516,135.738968 48.734425,188.395599 53.543953,241.159882 
	C55.901379,267.022675 57.644794,292.979523 58.461304,318.931702 
	C59.031319,337.049103 55.435684,354.749359 47.109768,371.199554 
	C46.152641,373.090607 45.564556,375.278992 45.303375,377.391083 
	C44.516819,383.751740 47.971867,389.695282 53.526886,392.001404 
	C59.246719,394.375916 65.812096,392.882416 69.300011,387.032410 
	C75.645638,376.389435 85.771034,372.424866 96.893784,371.420532 
	C107.596214,370.454132 118.596771,370.472321 129.252609,371.788361 
	C151.563324,374.543823 173.759979,378.275208 195.954880,381.903137 
	C226.062836,386.824524 256.138885,391.962433 286.816589,391.091827 
	C304.685822,390.584656 321.981323,387.491760 337.668732,378.325775 
	C350.708374,370.706848 360.183136,360.059357 363.765991,345.084320 
	C364.618347,341.521667 364.669189,337.332489 363.655426,333.848541 
	C361.539673,326.577606 354.846252,324.487488 348.644958,328.838379 
	C345.960419,330.721893 343.670654,333.263733 341.496399,335.763062 
	C329.281921,349.804047 313.735443,357.183258 295.415680,359.192932 
	C272.686798,361.686279 250.138184,359.371979 227.659515,356.396667 
	C199.582581,352.680389 171.602783,348.209290 143.499878,344.717255 
	C124.309486,342.332672 104.979675,340.949402 85.854790,345.871887 
	C84.994125,346.093445 84.026718,345.900269 82.866089,345.900269 
	C82.866089,344.313934 82.755943,343.166656 82.882317,342.046021 
	C85.552322,318.368317 83.812805,294.778870 81.397743,271.215454 
	C74.500763,203.922607 67.262047,136.663055 60.783131,69.330231 
	C58.968685,50.473431 59.072903,31.411339 58.844364,12.436825 
	C58.785679,7.564581 58.206280,3.730715 54.000000,1.000000 
M205.657181,161.077972 
	C195.163528,177.285538 184.604065,193.451202 174.234879,209.738022 
	C172.292343,212.789169 170.747543,216.211105 169.665756,219.664459 
	C168.138199,224.540878 169.506714,229.000458 173.578003,232.179108 
	C177.515594,235.253418 182.186829,235.367203 186.258835,232.916641 
	C189.592087,230.910660 192.775482,228.147858 195.078964,225.022980 
	C207.720367,207.873840 220.248688,190.634644 232.460266,173.177643 
	C241.232346,160.637573 249.674805,147.849274 257.753998,134.854416 
	C259.812988,131.542709 260.895538,126.987961 260.745697,123.068581 
	C260.412292,114.346840 252.230728,110.111298 244.567688,114.345383 
	C241.855835,115.843781 239.180161,117.874031 237.271561,120.282440 
	C226.736069,133.576675 216.442795,147.062881 205.657181,161.077972 
M144.164093,233.480820 
	C151.638199,234.569473 154.757904,232.058990 156.476761,224.852325 
	C157.994202,218.490173 155.566513,213.511826 151.519073,209.463150 
	C140.369171,198.309982 128.975845,187.388336 117.372658,176.707718 
	C114.120499,173.714142 113.723358,172.141174 117.132500,169.037674 
	C128.823944,158.394424 140.445312,147.655029 151.646820,136.503723 
	C155.313324,132.853653 157.919617,128.000092 160.442017,123.385986 
	C162.252151,120.074799 162.552841,116.211327 159.385895,113.230003 
	C156.227982,110.257164 152.397446,110.929237 149.116379,112.663765 
	C144.733398,114.980812 140.269562,117.487694 136.609512,120.770500 
	C120.144852,135.538132 103.915100,150.568985 87.688545,165.599808 
	C83.787399,169.213470 83.119446,174.361526 85.883003,179.341415 
	C87.399521,182.074158 89.306473,184.729050 91.540123,186.902344 
	C105.494179,200.479263 119.501602,214.004944 133.716873,227.306595 
	C136.425873,229.841507 140.141724,231.300400 144.164093,233.480820 
M341.985504,194.505661 
	C344.748932,191.183777 347.870026,188.092102 350.191376,184.485641 
	C353.612091,179.171173 353.042725,173.783173 348.852173,169.894104 
	C332.749542,154.949890 316.654541,139.992798 300.283539,125.345833 
	C296.378326,121.851875 291.680298,118.882965 286.838623,116.937508 
	C284.104462,115.838898 279.236420,116.163834 277.345367,117.964508 
	C275.512268,119.709999 275.024994,124.687836 276.139038,127.317223 
	C278.227478,132.246490 281.259460,137.143433 285.032440,140.922104 
	C295.972961,151.879074 307.441437,162.311600 318.799347,172.845764 
	C320.237823,174.179916 322.252380,174.892975 324.491882,176.175446 
	C321.354248,178.881836 319.939056,180.003372 318.635590,181.242462 
	C307.791809,191.550537 296.872864,201.782990 286.215027,212.280350 
	C283.908691,214.551971 282.241150,217.648544 280.844818,220.629959 
	C278.176483,226.327347 279.267670,232.513992 283.083130,235.874817 
	C286.727631,239.085068 292.441467,238.986984 297.950500,235.434830 
	C300.040527,234.087158 302.057251,232.554581 303.861725,230.846680 
	C316.441223,218.940308 328.956238,206.965790 341.985504,194.505661 
z"/>
<path fill="#C59CF3" opacity="1.000000" stroke="none" 
	d="
M53.625000,1.000000 
	C58.206280,3.730715 58.785679,7.564581 58.844364,12.436825 
	C59.072903,31.411339 58.968685,50.473431 60.783131,69.330231 
	C67.262047,136.663055 74.500763,203.922607 81.397743,271.215454 
	C83.812805,294.778870 85.552322,318.368317 82.882317,342.046021 
	C82.755943,343.166656 82.866089,344.313934 82.866089,345.900269 
	C84.026718,345.900269 84.994125,346.093445 85.854790,345.871887 
	C104.979675,340.949402 124.309486,342.332672 143.499878,344.717255 
	C171.602783,348.209290 199.582581,352.680389 227.659515,356.396667 
	C250.138184,359.371979 272.686798,361.686279 295.415680,359.192932 
	C313.735443,357.183258 329.281921,349.804047 341.496399,335.763062 
	C343.670654,333.263733 345.960419,330.721893 348.644958,328.838379 
	C354.846252,324.487488 361.539673,326.577606 363.655426,333.848541 
	C364.669189,337.332489 364.618347,341.521667 363.765991,345.084320 
	C360.183136,360.059357 350.708374,370.706848 337.668732,378.325775 
	C321.981323,387.491760 304.685822,390.584656 286.816589,391.091827 
	C256.138885,391.962433 226.062836,386.824524 195.954880,381.903137 
	C173.759979,378.275208 151.563324,374.543823 129.252609,371.788361 
	C118.596771,370.472321 107.596214,370.454132 96.893784,371.420532 
	C85.771034,372.424866 75.645638,376.389435 69.300011,387.032410 
	C65.812096,392.882416 59.246719,394.375916 53.526886,392.001404 
	C47.971867,389.695282 44.516819,383.751740 45.303375,377.391083 
	C45.564556,375.278992 46.152641,373.090607 47.109768,371.199554 
	C55.435684,354.749359 59.031319,337.049103 58.461304,318.931702 
	C57.644794,292.979523 55.901379,267.022675 53.543953,241.159882 
	C48.734425,188.395599 42.456516,135.738968 41.846802,82.685555 
	C41.621124,63.048492 42.356182,43.382954 43.266289,23.758837 
	C43.631519,15.883512 44.515511,7.682423 50.982315,1.346551 
	C51.750000,1.000000 52.500000,1.000000 53.625000,1.000000 
z"/>
<path fill="#FCDE8A" opacity="1.000000" stroke="none" 
	d="
M205.861847,160.780624 
	C216.442795,147.062881 226.736069,133.576675 237.271561,120.282440 
	C239.180161,117.874031 241.855835,115.843781 244.567688,114.345383 
	C252.230728,110.111298 260.412292,114.346840 260.745697,123.068581 
	C260.895538,126.987961 259.812988,131.542709 257.753998,134.854416 
	C249.674805,147.849274 241.232346,160.637573 232.460266,173.177643 
	C220.248688,190.634644 207.720367,207.873840 195.078964,225.022980 
	C192.775482,228.147858 189.592087,230.910660 186.258835,232.916641 
	C182.186829,235.367203 177.515594,235.253418 173.578003,232.179108 
	C169.506714,229.000458 168.138199,224.540878 169.665756,219.664459 
	C170.747543,216.211105 172.292343,212.789169 174.234879,209.738022 
	C184.604065,193.451202 195.163528,177.285538 205.861847,160.780624 
z"/>
<path fill="#F0E2E9" opacity="1.000000" stroke="none" 
	d="
M143.778564,233.368286 
	C140.141724,231.300400 136.425873,229.841507 133.716873,227.306595 
	C119.501602,214.004944 105.494179,200.479263 91.540123,186.902344 
	C89.306473,184.729050 87.399521,182.074158 85.883003,179.341415 
	C83.119446,174.361526 83.787399,169.213470 87.688545,165.599808 
	C103.915100,150.568985 120.144852,135.538132 136.609512,120.770500 
	C140.269562,117.487694 144.733398,114.980812 149.116379,112.663765 
	C152.397446,110.929237 156.227982,110.257164 159.385895,113.230003 
	C162.552841,116.211327 162.252151,120.074799 160.442017,123.385986 
	C157.919617,128.000092 155.313324,132.853653 151.646820,136.503723 
	C140.445312,147.655029 128.823944,158.394424 117.132500,169.037674 
	C113.723358,172.141174 114.120499,173.714142 117.372658,176.707718 
	C128.975845,187.388336 140.369171,198.309982 151.519073,209.463150 
	C155.566513,213.511826 157.994202,218.490173 156.476761,224.852325 
	C154.757904,232.058990 151.638199,234.569473 143.778564,233.368286 
M99.861130,181.774353 
	C100.480873,181.543488 101.244164,181.469833 101.697067,181.056259 
	C104.653465,178.356598 107.542603,175.583282 110.453728,172.834045 
	C107.162041,170.227753 104.136505,167.111603 100.480537,165.203140 
	C98.226273,164.026382 94.412231,163.596954 92.336906,164.731506 
	C85.685234,168.367920 85.018242,173.967422 90.599419,179.002945 
	C92.637863,180.842072 96.203148,180.988922 99.861130,181.774353 
z"/>
<path fill="#F0E2E9" opacity="1.000000" stroke="none" 
	d="
M341.738708,194.759384 
	C328.956238,206.965790 316.441223,218.940308 303.861725,230.846680 
	C302.057251,232.554581 300.040527,234.087158 297.950500,235.434830 
	C292.441467,238.986984 286.727631,239.085068 283.083130,235.874817 
	C279.267670,232.513992 278.176483,226.327347 280.844818,220.629959 
	C282.241150,217.648544 283.908691,214.551971 286.215027,212.280350 
	C296.872864,201.782990 307.791809,191.550537 318.635590,181.242462 
	C319.939056,180.003372 321.354248,178.881836 324.491882,176.175446 
	C322.252380,174.892975 320.237823,174.179916 318.799347,172.845764 
	C307.441437,162.311600 295.972961,151.879074 285.032440,140.922104 
	C281.259460,137.143433 278.227478,132.246490 276.139038,127.317223 
	C275.024994,124.687836 275.512268,119.709999 277.345367,117.964508 
	C279.236420,116.163834 284.104462,115.838898 286.838623,116.937508 
	C291.680298,118.882965 296.378326,121.851875 300.283539,125.345833 
	C316.654541,139.992798 332.749542,154.949890 348.852173,169.894104 
	C353.042725,173.783173 353.612091,179.171173 350.191376,184.485641 
	C347.870026,188.092102 344.748932,191.183777 341.738708,194.759384 
M330.303802,172.798157 
	C324.692902,177.162735 324.674164,178.478546 330.130310,182.817261 
	C330.909271,183.436646 331.581238,184.199448 332.392242,184.768188 
	C336.832672,187.882065 343.138214,187.457672 346.592590,183.853760 
	C350.273743,180.013260 350.964264,175.431396 348.347107,172.212128 
	C343.982605,166.843521 340.670685,166.361908 334.236694,170.200012 
	C333.096954,170.879913 332.018280,171.662201 330.303802,172.798157 
z"/>
<path fill="#F3EFF5" opacity="1.000000" stroke="none" 
	d="
M99.466507,181.841080 
	C96.203148,180.988922 92.637863,180.842072 90.599419,179.002945 
	C85.018242,173.967422 85.685234,168.367920 92.336906,164.731506 
	C94.412231,163.596954 98.226273,164.026382 100.480537,165.203140 
	C104.136505,167.111603 107.162041,170.227753 110.453728,172.834045 
	C107.542603,175.583282 104.653465,178.356598 101.697067,181.056259 
	C101.244164,181.469833 100.480873,181.543488 99.466507,181.841080 
z"/>
<path fill="#F0EEF9" opacity="1.000000" stroke="none" 
	d="
M330.607605,172.597687 
	C332.018280,171.662201 333.096954,170.879913 334.236694,170.200012 
	C340.670685,166.361908 343.982605,166.843521 348.347107,172.212128 
	C350.964264,175.431396 350.273743,180.013260 346.592590,183.853760 
	C343.138214,187.457672 336.832672,187.882065 332.392242,184.768188 
	C331.581238,184.199448 330.909271,183.436646 330.130310,182.817261 
	C324.674164,178.478546 324.692902,177.162735 330.607605,172.597687 
z"/>
</svg>